<?xml version="1.0" encoding="utf-8"?>
<!-- Generator: Adobe Illustrator 19.1.0, SVG Export Plug-In . SVG Version: 6.00 Build 0)  -->
<!DOCTYPE svg PUBLIC "-//W3C//DTD SVG 1.1//EN" "http://www.w3.org/Graphics/SVG/1.1/DTD/svg11.dtd">
<svg version="1.1" id="Layer_1" xmlns="http://www.w3.org/2000/svg" xmlns:xlink="http://www.w3.org/1999/xlink" x="0px" y="0px"
	 viewBox="0 0 130 65" style="enable-background:new 0 0 130 65;" xml:space="preserve">
<style type="text/css">
	.st0{fill:#312F32;}
</style>
<rect x="40.9" y="23.4" transform="matrix(-0.7071 -0.7071 0.7071 -0.7071 54.7806 72.5034)" class="st0" width="3" height="3"/>
<rect x="43.4" y="20.9" transform="matrix(-0.7071 -0.7071 0.7071 -0.7071 60.8162 70.0034)" class="st0" width="3" height="3"/>
<rect x="38.4" y="20.9" transform="matrix(-0.7071 -0.7071 0.7071 -0.7071 52.2806 66.4678)" class="st0" width="3" height="3"/>
<rect x="45.9" y="23.4" transform="matrix(-0.7071 -0.7071 0.7071 -0.7071 63.3162 76.0389)" class="st0" width="3" height="3"/>
<rect x="35.9" y="23.4" transform="matrix(-0.7071 -0.7071 0.7071 -0.7071 46.2451 68.9678)" class="st0" width="3" height="3"/>
<rect x="30.9" y="23.4" transform="matrix(-0.7071 -0.7071 0.7071 -0.7071 37.7096 65.4323)" class="st0" width="3" height="3"/>
<rect x="28.4" y="20.9" transform="matrix(-0.7071 -0.7071 0.7071 -0.7071 35.2096 59.3968)" class="st0" width="3" height="3"/>
<rect x="33.4" y="20.9" transform="matrix(-0.7071 -0.7071 0.7071 -0.7071 43.7451 62.9323)" class="st0" width="3" height="3"/>
<rect x="48.4" y="20.9" transform="matrix(-0.7071 -0.7071 0.7071 -0.7071 69.3517 73.5389)" class="st0" width="3" height="3"/>
<rect x="70.9" y="23.4" transform="matrix(-0.7071 -0.7071 0.7071 -0.7071 105.9938 93.7166)" class="st0" width="3" height="3"/>
<rect x="68.4" y="20.9" transform="matrix(-0.7071 -0.7071 0.7071 -0.7071 103.4938 87.681)" class="st0" width="3" height="3"/>
<rect x="65.9" y="23.4" transform="matrix(-0.7071 -0.7071 0.7071 -0.7071 97.4583 90.181)" class="st0" width="3" height="3"/>
<rect x="25.9" y="23.4" transform="matrix(-0.7071 -0.7071 0.7071 -0.7071 29.174 61.8968)" class="st0" width="3" height="3"/>
<rect x="63.4" y="20.9" transform="matrix(-0.7071 -0.7071 0.7071 -0.7071 94.9583 84.1455)" class="st0" width="3" height="3"/>
<rect x="58.4" y="20.9" transform="matrix(-0.7071 -0.7071 0.7071 -0.7071 86.4228 80.61)" class="st0" width="3" height="3"/>
<rect x="53.4" y="20.9" transform="matrix(-0.7071 -0.7071 0.7071 -0.7071 77.8872 77.0744)" class="st0" width="3" height="3"/>
<rect x="55.9" y="23.4" transform="matrix(-0.7071 -0.7071 0.7071 -0.7071 80.3872 83.11)" class="st0" width="3" height="3"/>
<rect x="60.9" y="23.4" transform="matrix(-0.7071 -0.7071 0.7071 -0.7071 88.9228 86.6455)" class="st0" width="3" height="3"/>
<rect x="50.9" y="23.4" transform="matrix(-0.7071 -0.7071 0.7071 -0.7071 71.8517 79.5744)" class="st0" width="3" height="3"/>
<rect x="25.9" y="38.4" transform="matrix(0.7071 0.7071 -0.7071 0.7071 36.2451 -7.6909)" class="st0" width="3" height="3"/>
<rect x="23.4" y="40.9" transform="matrix(0.7071 0.7071 -0.7071 0.7071 37.2806 -5.1909)" class="st0" width="3" height="3"/>
<rect x="20.9" y="38.4" transform="matrix(0.7071 0.7071 -0.7071 0.7071 34.7806 -4.1553)" class="st0" width="3" height="3"/>
<rect x="18.4" y="40.9" transform="matrix(0.7071 0.7071 -0.7071 0.7071 35.8162 -1.6553)" class="st0" width="3" height="3"/>
<rect x="28.4" y="40.9" transform="matrix(0.7071 0.7071 -0.7071 0.7071 38.7451 -8.7264)" class="st0" width="3" height="3"/>
<rect x="35.9" y="38.4" transform="matrix(0.7071 0.7071 -0.7071 0.7071 39.174 -14.7619)" class="st0" width="3" height="3"/>
<rect x="73.4" y="20.9" transform="matrix(-0.7071 -0.7071 0.7071 -0.7071 112.0294 91.2166)" class="st0" width="3" height="3"/>
<rect x="15.9" y="38.4" transform="matrix(0.7071 0.7071 -0.7071 0.7071 33.3162 -0.6198)" class="st0" width="3" height="3"/>
<rect x="33.4" y="40.9" transform="matrix(0.7071 0.7071 -0.7071 0.7071 40.2096 -12.2619)" class="st0" width="3" height="3"/>
<rect x="30.9" y="38.4" transform="matrix(0.7071 0.7071 -0.7071 0.7071 37.7096 -11.2264)" class="st0" width="3" height="3"/>
<rect x="10.9" y="33.4" transform="matrix(-0.7071 0.7071 -0.7071 -0.7071 45.8612 50.8162)" class="st0" width="3" height="3"/>
<rect x="18.4" y="20.9" transform="matrix(-0.7071 -0.7071 0.7071 -0.7071 18.1385 52.3257)" class="st0" width="3" height="3"/>
<rect x="13.4" y="20.9" transform="matrix(-0.7071 -0.7071 0.7071 -0.7071 9.6029 48.7902)" class="st0" width="3" height="3"/>
<rect x="15.9" y="23.4" transform="matrix(-0.7071 -0.7071 0.7071 -0.7071 12.1029 54.8257)" class="st0" width="3" height="3"/>
<rect x="13.4" y="40.9" transform="matrix(0.7071 0.7071 -0.7071 0.7071 34.3517 1.8802)" class="st0" width="3" height="3"/>
<rect x="20.9" y="23.4" transform="matrix(-0.7071 -0.7071 0.7071 -0.7071 20.6385 58.3612)" class="st0" width="3" height="3"/>
<rect x="10.9" y="23.4" transform="matrix(-0.7071 -0.7071 0.7071 -0.7071 3.5674 51.2902)" class="st0" width="3" height="3"/>
<rect x="23.4" y="20.9" transform="matrix(-0.7071 -0.7071 0.7071 -0.7071 26.674 55.8612)" class="st0" width="3" height="3"/>
<rect x="10.9" y="38.4" transform="matrix(-0.7071 0.7071 -0.7071 -0.7071 49.3968 59.3517)" class="st0" width="3" height="3"/>
<rect x="10.9" y="28.4" transform="matrix(-0.7071 0.7071 -0.7071 -0.7071 42.3257 42.2806)" class="st0" width="3" height="3"/>
<rect x="80.9" y="33.4" transform="matrix(0.7071 0.7071 -0.7071 0.7071 48.8187 -48.0462)" class="st0" width="3" height="3"/>
<rect x="85.9" y="33.4" transform="matrix(0.7071 0.7071 -0.7071 0.7071 50.2831 -51.5817)" class="st0" width="3" height="3"/>
<rect x="93.4" y="35.9" transform="matrix(0.7071 0.7071 -0.7071 0.7071 54.2476 -56.1528)" class="st0" width="3" height="3"/>
<rect x="88.4" y="35.9" transform="matrix(0.7071 0.7071 -0.7071 0.7071 52.7831 -52.6173)" class="st0" width="3" height="3"/>
<rect x="95.9" y="33.4" transform="matrix(0.7071 0.7071 -0.7071 0.7071 53.2121 -58.6528)" class="st0" width="3" height="3"/>
<rect x="90.9" y="33.4" transform="matrix(0.7071 0.7071 -0.7071 0.7071 51.7476 -55.1173)" class="st0" width="3" height="3"/>
<rect x="103.4" y="35.9" transform="matrix(0.7071 0.7071 -0.7071 0.7071 57.1765 -63.2239)" class="st0" width="3" height="3"/>
<rect x="105.9" y="33.4" transform="matrix(0.7071 0.7071 -0.7071 0.7071 56.141 -65.7239)" class="st0" width="3" height="3"/>
<rect x="100.9" y="33.4" transform="matrix(0.7071 0.7071 -0.7071 0.7071 54.6765 -62.1884)" class="st0" width="3" height="3"/>
<rect x="98.4" y="35.9" transform="matrix(0.7071 0.7071 -0.7071 0.7071 55.7121 -59.6884)" class="st0" width="3" height="3"/>
<rect x="108.4" y="35.9" transform="matrix(0.7071 0.7071 -0.7071 0.7071 58.641 -66.7594)" class="st0" width="3" height="3"/>
<rect x="68.4" y="35.9" transform="matrix(0.7071 0.7071 -0.7071 0.7071 46.9253 -38.4751)" class="st0" width="3" height="3"/>
<rect x="65.9" y="33.4" transform="matrix(0.7071 0.7071 -0.7071 0.7071 44.4253 -37.4396)" class="st0" width="3" height="3"/>
<rect x="63.4" y="35.9" transform="matrix(0.7071 0.7071 -0.7071 0.7071 45.4608 -34.9396)" class="st0" width="3" height="3"/>
<rect x="70.9" y="33.4" transform="matrix(0.7071 0.7071 -0.7071 0.7071 45.8897 -40.9751)" class="st0" width="3" height="3"/>
<rect x="83.4" y="35.9" transform="matrix(0.7071 0.7071 -0.7071 0.7071 51.3187 -49.0817)" class="st0" width="3" height="3"/>
<rect x="73.4" y="35.9" transform="matrix(0.7071 0.7071 -0.7071 0.7071 48.3897 -42.0107)" class="st0" width="3" height="3"/>
<rect x="78.4" y="35.9" transform="matrix(0.7071 0.7071 -0.7071 0.7071 49.8542 -45.5462)" class="st0" width="3" height="3"/>
<rect x="38.4" y="40.9" transform="matrix(0.7071 0.7071 -0.7071 0.7071 41.674 -15.7975)" class="st0" width="3" height="3"/>
<rect x="75.9" y="33.4" transform="matrix(0.7071 0.7071 -0.7071 0.7071 47.3542 -44.5107)" class="st0" width="3" height="3"/>
<rect x="98.4" y="20.9" transform="matrix(-0.7071 -0.7071 0.7071 -0.7071 154.707 108.8942)" class="st0" width="3" height="3"/>
<rect x="90.9" y="23.4" transform="matrix(-0.7071 -0.7071 0.7071 -0.7071 140.136 107.8587)" class="st0" width="3" height="3"/>
<rect x="93.4" y="20.9" transform="matrix(-0.7071 -0.7071 0.7071 -0.7071 146.1715 105.3587)" class="st0" width="3" height="3"/>
<rect x="88.4" y="20.9" transform="matrix(-0.7071 -0.7071 0.7071 -0.7071 137.636 101.8232)" class="st0" width="3" height="3"/>
<rect x="95.9" y="23.4" transform="matrix(-0.7071 -0.7071 0.7071 -0.7071 148.6715 111.3942)" class="st0" width="3" height="3"/>
<rect x="80.9" y="23.4" transform="matrix(-0.7071 -0.7071 0.7071 -0.7071 123.0649 100.7876)" class="st0" width="3" height="3"/>
<rect x="78.4" y="20.9" transform="matrix(-0.7071 -0.7071 0.7071 -0.7071 120.5649 94.7521)" class="st0" width="3" height="3"/>
<rect x="85.9" y="23.4" transform="matrix(-0.7071 -0.7071 0.7071 -0.7071 131.6004 104.3232)" class="st0" width="3" height="3"/>
<rect x="75.9" y="23.4" transform="matrix(-0.7071 -0.7071 0.7071 -0.7071 114.5294 97.2521)" class="st0" width="3" height="3"/>
<rect x="83.4" y="20.9" transform="matrix(-0.7071 -0.7071 0.7071 -0.7071 129.1004 98.2876)" class="st0" width="3" height="3"/>
<rect x="113.4" y="35.9" transform="matrix(0.7071 0.7071 -0.7071 0.7071 60.1055 -70.295)" class="st0" width="3" height="3"/>
<rect x="100.9" y="23.4" transform="matrix(-0.7071 -0.7071 0.7071 -0.7071 157.207 114.9298)" class="st0" width="3" height="3"/>
<rect x="113.4" y="25.9" transform="matrix(0.7071 -0.7071 0.7071 0.7071 14.2761 89.2781)" class="st0" width="3" height="3"/>
<rect x="113.4" y="30.9" transform="matrix(0.7071 -0.7071 0.7071 0.7071 10.7406 90.7426)" class="st0" width="3" height="3"/>
<rect x="110.9" y="33.4" transform="matrix(0.7071 0.7071 -0.7071 0.7071 57.6055 -69.2594)" class="st0" width="3" height="3"/>
<rect x="113.4" y="20.9" transform="matrix(0.7071 -0.7071 0.7071 0.7071 17.8116 87.8136)" class="st0" width="3" height="3"/>
<rect x="110.9" y="23.4" transform="matrix(-0.7071 -0.7071 0.7071 -0.7071 174.2781 122.0008)" class="st0" width="3" height="3"/>
<rect x="103.4" y="20.9" transform="matrix(-0.7071 -0.7071 0.7071 -0.7071 163.2426 112.4298)" class="st0" width="3" height="3"/>
<rect x="105.9" y="23.4" transform="matrix(-0.7071 -0.7071 0.7071 -0.7071 165.7426 118.4653)" class="st0" width="3" height="3"/>
<rect x="60.9" y="33.4" transform="matrix(0.7071 0.7071 -0.7071 0.7071 42.9608 -33.9041)" class="st0" width="3" height="3"/>
<rect x="108.4" y="20.9" transform="matrix(-0.7071 -0.7071 0.7071 -0.7071 171.7781 115.9653)" class="st0" width="3" height="3"/>
<rect x="100.9" y="18.4" transform="matrix(-0.7071 -0.7071 0.7071 -0.7071 160.7426 106.3942)" class="st0" width="3" height="3"/>
<rect x="68.4" y="15.9" transform="matrix(-0.7071 -0.7071 0.7071 -0.7071 107.0294 79.1455)" class="st0" width="3" height="3"/>
<rect x="70.9" y="18.4" transform="matrix(-0.7071 -0.7071 0.7071 -0.7071 109.5294 85.181)" class="st0" width="3" height="3"/>
<rect x="53.4" y="15.9" transform="matrix(-0.7071 -0.7071 0.7071 -0.7071 81.4228 68.5389)" class="st0" width="3" height="3"/>
<rect x="58.4" y="15.9" transform="matrix(-0.7071 -0.7071 0.7071 -0.7071 89.9583 72.0744)" class="st0" width="3" height="3"/>
<rect x="63.4" y="15.9" transform="matrix(-0.7071 -0.7071 0.7071 -0.7071 98.4938 75.61)" class="st0" width="3" height="3"/>
<rect x="55.9" y="18.4" transform="matrix(-0.7071 -0.7071 0.7071 -0.7071 83.9228 74.5744)" class="st0" width="3" height="3"/>
<rect x="75.9" y="18.4" transform="matrix(-0.7071 -0.7071 0.7071 -0.7071 118.0649 88.7166)" class="st0" width="3" height="3"/>
<rect x="60.9" y="18.4" transform="matrix(-0.7071 -0.7071 0.7071 -0.7071 92.4583 78.11)" class="st0" width="3" height="3"/>
<rect x="73.4" y="15.9" transform="matrix(-0.7071 -0.7071 0.7071 -0.7071 115.5649 82.681)" class="st0" width="3" height="3"/>
<rect x="93.4" y="15.9" transform="matrix(-0.7071 -0.7071 0.7071 -0.7071 149.707 96.8232)" class="st0" width="3" height="3"/>
<rect x="95.9" y="18.4" transform="matrix(-0.7071 -0.7071 0.7071 -0.7071 152.207 102.8587)" class="st0" width="3" height="3"/>
<rect x="98.4" y="15.9" transform="matrix(-0.7071 -0.7071 0.7071 -0.7071 158.2426 100.3587)" class="st0" width="3" height="3"/>
<rect x="90.9" y="18.4" transform="matrix(-0.7071 -0.7071 0.7071 -0.7071 143.6715 99.3232)" class="st0" width="3" height="3"/>
<rect x="83.4" y="15.9" transform="matrix(-0.7071 -0.7071 0.7071 -0.7071 132.636 89.7521)" class="st0" width="3" height="3"/>
<rect x="88.4" y="15.9" transform="matrix(-0.7071 -0.7071 0.7071 -0.7071 141.1715 93.2876)" class="st0" width="3" height="3"/>
<rect x="80.9" y="18.4" transform="matrix(-0.7071 -0.7071 0.7071 -0.7071 126.6004 92.2521)" class="st0" width="3" height="3"/>
<rect x="78.4" y="15.9" transform="matrix(-0.7071 -0.7071 0.7071 -0.7071 124.1004 86.2166)" class="st0" width="3" height="3"/>
<rect x="85.9" y="18.4" transform="matrix(-0.7071 -0.7071 0.7071 -0.7071 135.136 95.7876)" class="st0" width="3" height="3"/>
<rect x="65.9" y="18.4" transform="matrix(-0.7071 -0.7071 0.7071 -0.7071 100.9938 81.6455)" class="st0" width="3" height="3"/>
<rect x="20.9" y="18.4" transform="matrix(-0.7071 -0.7071 0.7071 -0.7071 24.174 49.8257)" class="st0" width="3" height="3"/>
<rect x="18.4" y="15.9" transform="matrix(-0.7071 -0.7071 0.7071 -0.7071 21.674 43.7902)" class="st0" width="3" height="3"/>
<rect x="23.4" y="15.9" transform="matrix(-0.7071 -0.7071 0.7071 -0.7071 30.2096 47.3257)" class="st0" width="3" height="3"/>
<rect x="15.9" y="18.4" transform="matrix(-0.7071 -0.7071 0.7071 -0.7071 15.6385 46.2902)" class="st0" width="3" height="3"/>
<rect x="25.9" y="18.4" transform="matrix(-0.7071 -0.7071 0.7071 -0.7071 32.7096 53.3612)" class="st0" width="3" height="3"/>
<rect x="50.9" y="18.4" transform="matrix(-0.7071 -0.7071 0.7071 -0.7071 75.3872 71.0389)" class="st0" width="3" height="3"/>
<rect x="13.4" y="15.9" transform="matrix(-0.7071 -0.7071 0.7071 -0.7071 13.1385 40.2546)" class="st0" width="3" height="3"/>
<rect x="8.4" y="15.9" transform="matrix(-0.7071 -0.7071 0.7071 -0.7071 4.6029 36.7191)" class="st0" width="3" height="3"/>
<rect x="10.9" y="18.4" transform="matrix(-0.7071 -0.7071 0.7071 -0.7071 7.1029 42.7546)" class="st0" width="3" height="3"/>
<rect x="8.4" y="20.9" transform="matrix(-0.7071 0.7071 -0.7071 -0.7071 32.7546 31.2451)" class="st0" width="3" height="3"/>
<rect x="45.9" y="18.4" transform="matrix(-0.7071 -0.7071 0.7071 -0.7071 66.8517 67.5034)" class="st0" width="3" height="3"/>
<rect x="40.9" y="18.4" transform="matrix(-0.7071 -0.7071 0.7071 -0.7071 58.3162 63.9678)" class="st0" width="3" height="3"/>
<rect x="43.4" y="15.9" transform="matrix(-0.7071 -0.7071 0.7071 -0.7071 64.3517 61.4678)" class="st0" width="3" height="3"/>
<rect x="48.4" y="15.9" transform="matrix(-0.7071 -0.7071 0.7071 -0.7071 72.8872 65.0034)" class="st0" width="3" height="3"/>
<rect x="33.4" y="15.9" transform="matrix(-0.7071 -0.7071 0.7071 -0.7071 47.2806 54.3968)" class="st0" width="3" height="3"/>
<rect x="38.4" y="15.9" transform="matrix(-0.7071 -0.7071 0.7071 -0.7071 55.8162 57.9323)" class="st0" width="3" height="3"/>
<rect x="28.4" y="15.9" transform="matrix(-0.7071 -0.7071 0.7071 -0.7071 38.7451 50.8612)" class="st0" width="3" height="3"/>
<rect x="30.9" y="18.4" transform="matrix(-0.7071 -0.7071 0.7071 -0.7071 41.2451 56.8968)" class="st0" width="3" height="3"/>
<rect x="35.9" y="18.4" transform="matrix(-0.7071 -0.7071 0.7071 -0.7071 49.7806 60.4323)" class="st0" width="3" height="3"/>
<rect x="58.4" y="40.9" transform="matrix(0.7071 0.7071 -0.7071 0.7071 47.5319 -29.9396)" class="st0" width="3" height="3"/>
<rect x="70.9" y="38.4" transform="matrix(0.7071 0.7071 -0.7071 0.7071 49.4253 -39.5107)" class="st0" width="3" height="3"/>
<rect x="75.9" y="38.4" transform="matrix(0.7071 0.7071 -0.7071 0.7071 50.8897 -43.0462)" class="st0" width="3" height="3"/>
<rect x="73.4" y="40.9" transform="matrix(0.7071 0.7071 -0.7071 0.7071 51.9253 -40.5462)" class="st0" width="3" height="3"/>
<rect x="68.4" y="40.9" transform="matrix(0.7071 0.7071 -0.7071 0.7071 50.4608 -37.0107)" class="st0" width="3" height="3"/>
<rect x="88.4" y="40.9" transform="matrix(0.7071 0.7071 -0.7071 0.7071 56.3187 -51.1528)" class="st0" width="3" height="3"/>
<rect x="65.9" y="38.4" transform="matrix(0.7071 0.7071 -0.7071 0.7071 47.9608 -35.9751)" class="st0" width="3" height="3"/>
<rect x="85.9" y="38.4" transform="matrix(0.7071 0.7071 -0.7071 0.7071 53.8187 -50.1173)" class="st0" width="3" height="3"/>
<rect x="80.9" y="38.4" transform="matrix(0.7071 0.7071 -0.7071 0.7071 52.3542 -46.5817)" class="st0" width="3" height="3"/>
<rect x="78.4" y="40.9" transform="matrix(0.7071 0.7071 -0.7071 0.7071 53.3897 -44.0817)" class="st0" width="3" height="3"/>
<rect x="83.4" y="40.9" transform="matrix(0.7071 0.7071 -0.7071 0.7071 54.8542 -47.6173)" class="st0" width="3" height="3"/>
<rect x="50.9" y="38.4" transform="matrix(0.7071 0.7071 -0.7071 0.7071 43.5674 -25.3685)" class="st0" width="3" height="3"/>
<rect x="63.4" y="40.9" transform="matrix(0.7071 0.7071 -0.7071 0.7071 48.9963 -33.4751)" class="st0" width="3" height="3"/>
<rect x="48.4" y="40.9" transform="matrix(0.7071 0.7071 -0.7071 0.7071 44.6029 -22.8685)" class="st0" width="3" height="3"/>
<rect x="43.4" y="40.9" transform="matrix(0.7071 0.7071 -0.7071 0.7071 43.1385 -19.333)" class="st0" width="3" height="3"/>
<rect x="45.9" y="38.4" transform="matrix(0.7071 0.7071 -0.7071 0.7071 42.1029 -21.833)" class="st0" width="3" height="3"/>
<rect x="60.9" y="38.4" transform="matrix(0.7071 0.7071 -0.7071 0.7071 46.4963 -32.4396)" class="st0" width="3" height="3"/>
<rect x="40.9" y="38.4" transform="matrix(0.7071 0.7071 -0.7071 0.7071 40.6385 -18.2975)" class="st0" width="3" height="3"/>
<rect x="55.9" y="38.4" transform="matrix(0.7071 0.7071 -0.7071 0.7071 45.0319 -28.9041)" class="st0" width="3" height="3"/>
<rect x="53.4" y="40.9" transform="matrix(0.7071 0.7071 -0.7071 0.7071 46.0674 -26.4041)" class="st0" width="3" height="3"/>
<rect x="115.9" y="33.4" transform="matrix(0.7071 -0.7071 0.7071 0.7071 9.705 93.2426)" class="st0" width="3" height="3"/>
<rect x="115.9" y="28.4" transform="matrix(0.7071 -0.7071 0.7071 0.7071 13.2406 91.7781)" class="st0" width="3" height="3"/>
<rect x="115.9" y="23.4" transform="matrix(0.7071 -0.7071 0.7071 0.7071 16.7761 90.3136)" class="st0" width="3" height="3"/>
<rect x="115.9" y="18.4" transform="matrix(0.7071 -0.7071 0.7071 0.7071 20.3116 88.8492)" class="st0" width="3" height="3"/>
<rect x="115.9" y="38.4" transform="matrix(0.7071 0.7071 -0.7071 0.7071 62.6055 -71.3305)" class="st0" width="3" height="3"/>
<rect x="103.4" y="15.9" transform="matrix(-0.7071 -0.7071 0.7071 -0.7071 166.7781 103.8942)" class="st0" width="3" height="3"/>
<rect x="108.4" y="15.9" transform="matrix(-0.7071 -0.7071 0.7071 -0.7071 175.3136 107.4298)" class="st0" width="3" height="3"/>
<rect x="105.9" y="18.4" transform="matrix(-0.7071 -0.7071 0.7071 -0.7071 169.2781 109.9298)" class="st0" width="3" height="3"/>
<rect x="110.9" y="18.4" transform="matrix(-0.7071 -0.7071 0.7071 -0.7071 177.8136 113.4653)" class="st0" width="3" height="3"/>
<rect x="113.4" y="15.9" transform="matrix(-0.7071 -0.7071 0.7071 -0.7071 183.8492 110.9653)" class="st0" width="3" height="3"/>
<rect x="108.4" y="40.9" transform="matrix(0.7071 0.7071 -0.7071 0.7071 62.1765 -65.295)" class="st0" width="3" height="3"/>
<rect x="95.9" y="38.4" transform="matrix(0.7071 0.7071 -0.7071 0.7071 56.7476 -57.1884)" class="st0" width="3" height="3"/>
<rect x="100.9" y="38.4" transform="matrix(0.7071 0.7071 -0.7071 0.7071 58.2121 -60.7239)" class="st0" width="3" height="3"/>
<rect x="98.4" y="40.9" transform="matrix(0.7071 0.7071 -0.7071 0.7071 59.2476 -58.2239)" class="st0" width="3" height="3"/>
<rect x="93.4" y="40.9" transform="matrix(0.7071 0.7071 -0.7071 0.7071 57.7831 -54.6884)" class="st0" width="3" height="3"/>
<rect x="113.4" y="40.9" transform="matrix(0.7071 0.7071 -0.7071 0.7071 63.641 -68.8305)" class="st0" width="3" height="3"/>
<rect x="110.9" y="38.4" transform="matrix(0.7071 0.7071 -0.7071 0.7071 61.141 -67.795)" class="st0" width="3" height="3"/>
<rect x="90.9" y="38.4" transform="matrix(0.7071 0.7071 -0.7071 0.7071 55.2831 -53.6528)" class="st0" width="3" height="3"/>
<rect x="105.9" y="38.4" transform="matrix(0.7071 0.7071 -0.7071 0.7071 59.6765 -64.2594)" class="st0" width="3" height="3"/>
<rect x="103.4" y="40.9" transform="matrix(0.7071 0.7071 -0.7071 0.7071 60.7121 -61.7594)" class="st0" width="3" height="3"/>
<polygon class="st0" points="9.5,0 5.4,0 7.4,2.1 "/>
<polygon class="st0" points="62.4,62.8 60.3,64.9 60.4,65 64.5,65 64.6,64.9 "/>
<polygon class="st0" points="67.4,62.8 65.3,64.9 65.4,65 69.5,65 69.6,64.9 "/>
<polygon class="st0" points="57.4,62.8 55.3,64.9 55.4,65 59.5,65 59.6,64.9 "/>
<polygon class="st0" points="72.4,62.8 70.3,64.9 70.4,65 74.5,65 74.6,64.9 "/>
<rect x="123.4" y="0.9" transform="matrix(0.7071 0.7071 -0.7071 0.7071 38.2857 -87.6173)" class="st0" width="3" height="3"/>
<polygon class="st0" points="92.4,62.8 90.3,64.9 90.4,65 94.5,65 94.6,64.9 "/>
<polygon class="st0" points="52.4,62.8 50.3,64.9 50.4,65 54.5,65 54.6,64.9 "/>
<polygon class="st0" points="2.4,62.8 0.3,64.9 0.4,65 4.5,65 4.6,64.9 "/>
<polygon class="st0" points="82.4,62.8 80.3,64.9 80.4,65 84.5,65 84.6,64.9 "/>
<polygon class="st0" points="27.4,62.8 25.3,64.9 25.4,65 29.5,65 29.6,64.9 "/>
<polygon class="st0" points="17.4,62.8 15.3,64.9 15.4,65 19.5,65 19.6,64.9 "/>
<polygon class="st0" points="12.4,62.8 10.3,64.9 10.4,65 14.5,65 14.6,64.9 "/>
<polygon class="st0" points="7.4,62.8 5.3,64.9 5.4,65 9.5,65 9.6,64.9 "/>
<polygon class="st0" points="22.4,62.8 20.3,64.9 20.4,65 24.5,65 24.6,64.9 "/>
<polygon class="st0" points="42.4,62.8 40.3,64.9 40.4,65 44.5,65 44.6,64.9 "/>
<polygon class="st0" points="47.4,62.8 45.3,64.9 45.4,65 49.5,65 49.6,64.9 "/>
<polygon class="st0" points="97.4,62.8 95.3,64.9 95.4,65 99.5,65 99.6,64.9 "/>
<polygon class="st0" points="37.4,62.8 35.3,64.9 35.4,65 39.5,65 39.6,64.9 "/>
<polygon class="st0" points="32.4,62.8 30.3,64.9 30.4,65 34.5,65 34.6,64.9 "/>
<polygon class="st0" points="77.4,62.8 75.3,64.9 75.4,65 79.5,65 79.6,64.9 "/>
<polygon class="st0" points="127.8,42.4 129.9,44.6 130,44.5 130,40.4 129.9,40.3 "/>
<polygon class="st0" points="127.8,32.4 129.9,34.6 130,34.5 130,30.4 129.9,30.3 "/>
<polygon class="st0" points="127.8,27.4 129.9,29.6 130,29.5 130,25.4 129.9,25.3 "/>
<polygon class="st0" points="127.8,37.4 129.9,39.6 130,39.5 130,35.4 129.9,35.3 "/>
<polygon class="st0" points="127.8,22.4 129.9,24.6 130,24.5 130,20.4 129.9,20.3 "/>
<polygon class="st0" points="127.8,7.4 129.9,9.6 130,9.5 130,5.4 129.9,5.3 "/>
<polygon class="st0" points="127.8,2.4 129.9,4.6 130,4.5 130,0.4 129.9,0.3 "/>
<polygon class="st0" points="127.8,17.4 129.9,19.6 130,19.5 130,15.4 129.9,15.3 "/>
<polygon class="st0" points="127.8,12.4 129.9,14.6 130,14.5 130,10.4 129.9,10.3 "/>
<polygon class="st0" points="107.4,62.8 105.3,64.9 105.4,65 109.5,65 109.6,64.9 "/>
<polygon class="st0" points="117.4,62.8 115.3,64.9 115.4,65 119.5,65 119.6,64.9 "/>
<polygon class="st0" points="112.4,62.8 110.3,64.9 110.4,65 114.5,65 114.6,64.9 "/>
<polygon class="st0" points="102.4,62.8 100.3,64.9 100.4,65 104.5,65 104.6,64.9 "/>
<polygon class="st0" points="122.4,62.8 120.3,64.9 120.4,65 124.5,65 124.6,64.9 "/>
<polygon class="st0" points="127.8,57.4 129.9,59.6 130,59.5 130,55.4 129.9,55.3 "/>
<polygon class="st0" points="127.8,52.4 129.9,54.6 130,54.5 130,50.4 129.9,50.3 "/>
<polygon class="st0" points="127.8,47.4 129.9,49.6 130,49.5 130,45.4 129.9,45.3 "/>
<polygon class="st0" points="127.8,62.4 129.9,64.6 130,64.5 130,60.4 129.9,60.3 "/>
<polygon class="st0" points="127.4,62.8 125.3,64.9 125.4,65 129.5,65 129.6,64.9 "/>
<polygon class="st0" points="87.4,62.8 85.3,64.9 85.4,65 89.5,65 89.6,64.9 "/>
<polygon class="st0" points="69.5,0 65.4,0 67.4,2.1 "/>
<polygon class="st0" points="39.5,0 35.4,0 37.4,2.1 "/>
<polygon class="st0" points="84.5,0 80.4,0 82.4,2.1 "/>
<polygon class="st0" points="79.5,0 75.4,0 77.4,2.1 "/>
<polygon class="st0" points="64.5,0 60.4,0 62.4,2.1 "/>
<polygon class="st0" points="49.5,0 45.4,0 47.4,2.1 "/>
<polygon class="st0" points="44.5,0 40.4,0 42.4,2.1 "/>
<polygon class="st0" points="59.5,0 55.4,0 57.4,2.1 "/>
<polygon class="st0" points="54.5,0 50.4,0 52.4,2.1 "/>
<polygon class="st0" points="74.5,0 70.4,0 72.4,2.1 "/>
<polygon class="st0" points="119.5,0 115.4,0 117.4,2.1 "/>
<polygon class="st0" points="124.5,0 120.4,0 122.4,2.1 "/>
<polygon class="st0" points="0,60.4 0,64.5 2.1,62.4 "/>
<polygon class="st0" points="89.5,0 85.4,0 87.4,2.1 "/>
<polygon class="st0" points="114.5,0 110.4,0 112.4,2.1 "/>
<polygon class="st0" points="94.5,0 90.4,0 92.4,2.1 "/>
<polygon class="st0" points="109.5,0 105.4,0 107.4,2.1 "/>
<polygon class="st0" points="99.5,0 95.4,0 97.4,2.1 "/>
<polygon class="st0" points="104.5,0 100.4,0 102.4,2.1 "/>
<polygon class="st0" points="129.5,0 125.4,0 127.4,2.1 "/>
<polygon class="st0" points="0,15.4 0,19.5 2.1,17.4 "/>
<polygon class="st0" points="34.5,0 30.4,0 32.4,2.1 "/>
<polygon class="st0" points="0,30.4 0,34.5 2.1,32.4 "/>
<polygon class="st0" points="0,20.4 0,24.5 2.1,22.4 "/>
<polygon class="st0" points="0,25.4 0,29.5 2.1,27.4 "/>
<polygon class="st0" points="0,50.4 0,54.5 2.1,52.4 "/>
<polygon class="st0" points="0,55.4 0,59.5 2.1,57.4 "/>
<polygon class="st0" points="0,45.4 0,49.5 2.1,47.4 "/>
<polygon class="st0" points="0,40.4 0,44.5 2.1,42.4 "/>
<polygon class="st0" points="0,35.4 0,39.5 2.1,37.4 "/>
<polygon class="st0" points="0,10.4 0,14.5 2.1,12.4 "/>
<polygon class="st0" points="14.5,0 10.4,0 12.4,2.1 "/>
<rect x="58.4" y="35.9" transform="matrix(0.7071 0.7071 -0.7071 0.7071 43.9963 -31.4041)" class="st0" width="3" height="3"/>
<polygon class="st0" points="29.5,0 25.4,0 27.4,2.1 "/>
<polygon class="st0" points="19.5,0 15.4,0 17.4,2.1 "/>
<polygon class="st0" points="0,5.4 0,9.5 2.1,7.4 "/>
<rect x="8.4" y="25.9" transform="matrix(-0.7071 0.7071 -0.7071 -0.7071 36.2902 39.7806)" class="st0" width="3" height="3"/>
<polygon class="st0" points="0,0.4 0,4.5 2.1,2.4 "/>
<polygon class="st0" points="4.5,0 0.4,0 2.4,2.1 "/>
<polygon class="st0" points="24.5,0 20.4,0 22.4,2.1 "/>
<rect x="23.4" y="25.9" transform="matrix(-0.7071 -0.7071 0.7071 -0.7071 23.1385 64.3968)" class="st0" width="3" height="3"/>
<rect x="25.9" y="28.4" transform="matrix(-0.7071 -0.7071 0.7071 -0.7071 25.6385 70.4323)" class="st0" width="3" height="3"/>
<rect x="23.4" y="30.9" transform="matrix(-0.7071 -0.7071 0.7071 -0.7071 19.6029 72.9323)" class="st0" width="3" height="3"/>
<rect x="13.4" y="25.9" transform="matrix(-0.7071 -0.7071 0.7071 -0.7071 6.0674 57.3257)" class="st0" width="3" height="3"/>
<rect x="18.4" y="25.9" transform="matrix(-0.7071 -0.7071 0.7071 -0.7071 14.6029 60.8612)" class="st0" width="3" height="3"/>
<rect x="15.9" y="28.4" transform="matrix(-0.7071 -0.7071 0.7071 -0.7071 8.5674 63.3612)" class="st0" width="3" height="3"/>
<rect x="28.4" y="30.9" transform="matrix(-0.7071 -0.7071 0.7071 -0.7071 28.1385 76.4678)" class="st0" width="3" height="3"/>
<rect x="20.9" y="28.4" transform="matrix(-0.7071 -0.7071 0.7071 -0.7071 17.1029 66.8968)" class="st0" width="3" height="3"/>
<rect x="18.4" y="30.9" transform="matrix(-0.7071 -0.7071 0.7071 -0.7071 11.0674 69.3968)" class="st0" width="3" height="3"/>
<rect x="45.9" y="28.4" transform="matrix(-0.7071 -0.7071 0.7071 -0.7071 59.7806 84.5744)" class="st0" width="3" height="3"/>
<rect x="40.9" y="28.4" transform="matrix(-0.7071 -0.7071 0.7071 -0.7071 51.2451 81.0389)" class="st0" width="3" height="3"/>
<rect x="38.4" y="30.9" transform="matrix(-0.7071 -0.7071 0.7071 -0.7071 45.2096 83.5389)" class="st0" width="3" height="3"/>
<rect x="43.4" y="25.9" transform="matrix(-0.7071 -0.7071 0.7071 -0.7071 57.2806 78.5389)" class="st0" width="3" height="3"/>
<rect x="43.4" y="30.9" transform="matrix(-0.7071 -0.7071 0.7071 -0.7071 53.7451 87.0744)" class="st0" width="3" height="3"/>
<rect x="33.4" y="25.9" transform="matrix(-0.7071 -0.7071 0.7071 -0.7071 40.2096 71.4678)" class="st0" width="3" height="3"/>
<rect x="30.9" y="28.4" transform="matrix(-0.7071 -0.7071 0.7071 -0.7071 34.174 73.9678)" class="st0" width="3" height="3"/>
<rect x="33.4" y="30.9" transform="matrix(-0.7071 -0.7071 0.7071 -0.7071 36.674 80.0034)" class="st0" width="3" height="3"/>
<rect x="38.4" y="25.9" transform="matrix(-0.7071 -0.7071 0.7071 -0.7071 48.7451 75.0034)" class="st0" width="3" height="3"/>
<rect x="35.9" y="28.4" transform="matrix(-0.7071 -0.7071 0.7071 -0.7071 42.7096 77.5034)" class="st0" width="3" height="3"/>
<rect x="28.4" y="25.9" transform="matrix(-0.7071 -0.7071 0.7071 -0.7071 31.674 67.9323)" class="st0" width="3" height="3"/>
<rect x="40.9" y="33.4" transform="matrix(0.7071 0.7071 -0.7071 0.7071 37.1029 -19.7619)" class="st0" width="3" height="3"/>
<rect x="43.4" y="35.9" transform="matrix(0.7071 0.7071 -0.7071 0.7071 39.6029 -20.7975)" class="st0" width="3" height="3"/>
<rect x="110.9" y="28.4" transform="matrix(0.7071 0.7071 -0.7071 0.7071 54.0699 -70.7239)" class="st0" width="3" height="3"/>
<rect x="45.9" y="33.4" transform="matrix(0.7071 0.7071 -0.7071 0.7071 38.5674 -23.2975)" class="st0" width="3" height="3"/>
<rect x="38.4" y="35.9" transform="matrix(0.7071 0.7071 -0.7071 0.7071 38.1385 -17.2619)" class="st0" width="3" height="3"/>
<rect x="55.9" y="33.4" transform="matrix(0.7071 0.7071 -0.7071 0.7071 41.4963 -30.3685)" class="st0" width="3" height="3"/>
<rect x="53.4" y="35.9" transform="matrix(0.7071 0.7071 -0.7071 0.7071 42.5319 -27.8685)" class="st0" width="3" height="3"/>
<rect x="48.4" y="35.9" transform="matrix(0.7071 0.7071 -0.7071 0.7071 41.0674 -24.333)" class="st0" width="3" height="3"/>
<rect x="50.9" y="33.4" transform="matrix(0.7071 0.7071 -0.7071 0.7071 40.0319 -26.833)" class="st0" width="3" height="3"/>
<rect x="23.4" y="35.9" transform="matrix(0.7071 0.7071 -0.7071 0.7071 33.7451 -6.6553)" class="st0" width="3" height="3"/>
<rect x="33.4" y="35.9" transform="matrix(0.7071 0.7071 -0.7071 0.7071 36.674 -13.7264)" class="st0" width="3" height="3"/>
<rect x="18.4" y="35.9" transform="matrix(0.7071 0.7071 -0.7071 0.7071 32.2806 -3.1198)" class="st0" width="3" height="3"/>
<rect x="20.9" y="33.4" transform="matrix(0.7071 0.7071 -0.7071 0.7071 31.2451 -5.6198)" class="st0" width="3" height="3"/>
<rect x="13.4" y="35.9" transform="matrix(-0.7071 0.7071 -0.7071 -0.7071 51.8968 53.3162)" class="st0" width="3" height="3"/>
<rect x="15.9" y="33.4" transform="matrix(0.7071 0.7071 -0.7071 0.7071 29.7806 -2.0843)" class="st0" width="3" height="3"/>
<rect x="30.9" y="33.4" transform="matrix(0.7071 0.7071 -0.7071 0.7071 34.174 -12.6909)" class="st0" width="3" height="3"/>
<rect x="13.4" y="30.9" transform="matrix(-0.7071 0.7071 -0.7071 -0.7071 48.3612 44.7806)" class="st0" width="3" height="3"/>
<rect x="28.4" y="35.9" transform="matrix(0.7071 0.7071 -0.7071 0.7071 35.2096 -10.1909)" class="st0" width="3" height="3"/>
<rect x="25.9" y="33.4" transform="matrix(0.7071 0.7071 -0.7071 0.7071 32.7096 -9.1553)" class="st0" width="3" height="3"/>
<rect x="35.9" y="33.4" transform="matrix(0.7071 0.7071 -0.7071 0.7071 35.6385 -16.2264)" class="st0" width="3" height="3"/>
<rect x="88.4" y="25.9" transform="matrix(-0.7071 -0.7071 0.7071 -0.7071 134.1004 110.3587)" class="st0" width="3" height="3"/>
<rect x="88.4" y="30.9" transform="matrix(-0.7071 -0.7071 0.7071 -0.7071 130.5649 118.8942)" class="st0" width="3" height="3"/>
<rect x="93.4" y="30.9" transform="matrix(-0.7071 -0.7071 0.7071 -0.7071 139.1004 122.4298)" class="st0" width="3" height="3"/>
<rect x="93.4" y="25.9" transform="matrix(-0.7071 -0.7071 0.7071 -0.7071 142.636 113.8942)" class="st0" width="3" height="3"/>
<rect x="90.9" y="28.4" transform="matrix(-0.7071 -0.7071 0.7071 -0.7071 136.6004 116.3942)" class="st0" width="3" height="3"/>
<rect x="80.9" y="28.4" transform="matrix(-0.7071 -0.7071 0.7071 -0.7071 119.5294 109.3232)" class="st0" width="3" height="3"/>
<rect x="83.4" y="25.9" transform="matrix(-0.7071 -0.7071 0.7071 -0.7071 125.5649 106.8232)" class="st0" width="3" height="3"/>
<rect x="83.4" y="30.9" transform="matrix(-0.7071 -0.7071 0.7071 -0.7071 122.0294 115.3587)" class="st0" width="3" height="3"/>
<rect x="85.9" y="28.4" transform="matrix(-0.7071 -0.7071 0.7071 -0.7071 128.0649 112.8587)" class="st0" width="3" height="3"/>
<rect x="105.9" y="28.4" transform="matrix(-0.7071 -0.7071 0.7071 -0.7071 162.207 127.0008)" class="st0" width="3" height="3"/>
<rect x="108.4" y="25.9" transform="matrix(-0.7071 -0.7071 0.7071 -0.7071 168.2426 124.5008)" class="st0" width="3" height="3"/>
<rect x="103.4" y="30.9" transform="matrix(-0.7071 -0.7071 0.7071 -0.7071 156.1715 129.5009)" class="st0" width="3" height="3"/>
<rect x="78.4" y="30.9" transform="matrix(-0.7071 -0.7071 0.7071 -0.7071 113.4938 111.8232)" class="st0" width="3" height="3"/>
<rect x="108.4" y="30.9" transform="matrix(-0.7071 -0.7071 0.7071 -0.7071 164.707 133.0364)" class="st0" width="3" height="3"/>
<rect x="98.4" y="30.9" transform="matrix(-0.7071 -0.7071 0.7071 -0.7071 147.636 125.9653)" class="st0" width="3" height="3"/>
<rect x="98.4" y="25.9" transform="matrix(-0.7071 -0.7071 0.7071 -0.7071 151.1715 117.4298)" class="st0" width="3" height="3"/>
<rect x="95.9" y="28.4" transform="matrix(-0.7071 -0.7071 0.7071 -0.7071 145.136 119.9298)" class="st0" width="3" height="3"/>
<rect x="100.9" y="28.4" transform="matrix(-0.7071 -0.7071 0.7071 -0.7071 153.6715 123.4653)" class="st0" width="3" height="3"/>
<rect x="103.4" y="25.9" transform="matrix(-0.7071 -0.7071 0.7071 -0.7071 159.707 120.9653)" class="st0" width="3" height="3"/>
<rect x="48.4" y="25.9" transform="matrix(-0.7071 -0.7071 0.7071 -0.7071 65.8162 82.0744)" class="st0" width="3" height="3"/>
<rect x="58.4" y="30.9" transform="matrix(-0.7071 -0.7071 0.7071 -0.7071 79.3517 97.681)" class="st0" width="3" height="3"/>
<rect x="58.4" y="25.9" transform="matrix(-0.7071 -0.7071 0.7071 -0.7071 82.8872 89.1455)" class="st0" width="3" height="3"/>
<rect x="55.9" y="28.4" transform="matrix(-0.7071 -0.7071 0.7071 -0.7071 76.8517 91.6455)" class="st0" width="3" height="3"/>
<rect x="63.4" y="25.9" transform="matrix(-0.7071 -0.7071 0.7071 -0.7071 91.4228 92.681)" class="st0" width="3" height="3"/>
<rect x="60.9" y="28.4" transform="matrix(-0.7071 -0.7071 0.7071 -0.7071 85.3872 95.181)" class="st0" width="3" height="3"/>
<rect x="53.4" y="30.9" transform="matrix(-0.7071 -0.7071 0.7071 -0.7071 70.8162 94.1455)" class="st0" width="3" height="3"/>
<rect x="50.9" y="28.4" transform="matrix(-0.7071 -0.7071 0.7071 -0.7071 68.3162 88.11)" class="st0" width="3" height="3"/>
<rect x="48.4" y="30.9" transform="matrix(-0.7071 -0.7071 0.7071 -0.7071 62.2806 90.61)" class="st0" width="3" height="3"/>
<rect x="53.4" y="25.9" transform="matrix(-0.7071 -0.7071 0.7071 -0.7071 74.3517 85.61)" class="st0" width="3" height="3"/>
<rect x="68.4" y="25.9" transform="matrix(-0.7071 -0.7071 0.7071 -0.7071 99.9583 96.2166)" class="st0" width="3" height="3"/>
<rect x="73.4" y="25.9" transform="matrix(-0.7071 -0.7071 0.7071 -0.7071 108.4938 99.7521)" class="st0" width="3" height="3"/>
<rect x="73.4" y="30.9" transform="matrix(-0.7071 -0.7071 0.7071 -0.7071 104.9583 108.2876)" class="st0" width="3" height="3"/>
<rect x="63.4" y="30.9" transform="matrix(-0.7071 -0.7071 0.7071 -0.7071 87.8872 101.2166)" class="st0" width="3" height="3"/>
<rect x="75.9" y="28.4" transform="matrix(-0.7071 -0.7071 0.7071 -0.7071 110.9938 105.7876)" class="st0" width="3" height="3"/>
<rect x="70.9" y="28.4" transform="matrix(-0.7071 -0.7071 0.7071 -0.7071 102.4583 102.2521)" class="st0" width="3" height="3"/>
<rect x="68.4" y="30.9" transform="matrix(-0.7071 -0.7071 0.7071 -0.7071 96.4228 104.7521)" class="st0" width="3" height="3"/>
<rect x="65.9" y="28.4" transform="matrix(-0.7071 -0.7071 0.7071 -0.7071 93.9228 98.7166)" class="st0" width="3" height="3"/>
<rect x="78.4" y="25.9" transform="matrix(-0.7071 -0.7071 0.7071 -0.7071 117.0294 103.2876)" class="st0" width="3" height="3"/>
<rect x="8.4" y="10.9" transform="matrix(-0.7071 -0.7071 0.7071 -0.7071 8.1385 28.1836)" class="st0" width="3" height="3"/>
<rect x="113.4" y="55.9" transform="matrix(0.7071 0.7071 -0.7071 0.7071 74.2476 -64.4371)" class="st0" width="3" height="3"/>
<rect x="123.4" y="45.9" transform="matrix(0.7071 -0.7071 0.7071 0.7071 3.0629 102.207)" class="st0" width="3" height="3"/>
<rect x="123.4" y="50.9" transform="matrix(0.7071 -0.7071 0.7071 0.7071 -0.4726 103.6715)" class="st0" width="3" height="3"/>
<rect x="120.9" y="53.4" transform="matrix(0.7071 0.7071 -0.7071 0.7071 74.6765 -70.4726)" class="st0" width="3" height="3"/>
<rect x="118.4" y="55.9" transform="matrix(0.7071 0.7071 -0.7071 0.7071 75.7121 -67.9726)" class="st0" width="3" height="3"/>
<rect x="115.9" y="53.4" transform="matrix(0.7071 0.7071 -0.7071 0.7071 73.2121 -66.9371)" class="st0" width="3" height="3"/>
<rect x="123.4" y="55.9" transform="matrix(0.7071 0.7071 -0.7071 0.7071 77.1765 -71.5082)" class="st0" width="3" height="3"/>
<rect x="123.4" y="40.9" transform="matrix(0.7071 -0.7071 0.7071 0.7071 6.5984 100.7426)" class="st0" width="3" height="3"/>
<rect x="123.4" y="25.9" transform="matrix(0.7071 -0.7071 0.7071 0.7071 17.205 96.3492)" class="st0" width="3" height="3"/>
<rect x="123.4" y="20.9" transform="matrix(0.7071 -0.7071 0.7071 0.7071 20.7406 94.8847)" class="st0" width="3" height="3"/>
<rect x="123.4" y="30.9" transform="matrix(0.7071 -0.7071 0.7071 0.7071 13.6695 97.8136)" class="st0" width="3" height="3"/>
<rect x="123.4" y="35.9" transform="matrix(0.7071 -0.7071 0.7071 0.7071 10.134 99.2781)" class="st0" width="3" height="3"/>
<rect x="123.4" y="15.9" transform="matrix(0.7071 -0.7071 0.7071 0.7071 24.2761 93.4202)" class="st0" width="3" height="3"/>
<rect x="93.4" y="55.9" transform="matrix(0.7071 0.7071 -0.7071 0.7071 68.3897 -50.295)" class="st0" width="3" height="3"/>
<rect x="90.9" y="53.4" transform="matrix(0.7071 0.7071 -0.7071 0.7071 65.8897 -49.2594)" class="st0" width="3" height="3"/>
<rect x="95.9" y="53.4" transform="matrix(0.7071 0.7071 -0.7071 0.7071 67.3542 -52.795)" class="st0" width="3" height="3"/>
<rect x="83.4" y="55.9" transform="matrix(0.7071 0.7071 -0.7071 0.7071 65.4608 -43.2239)" class="st0" width="3" height="3"/>
<rect x="88.4" y="55.9" transform="matrix(0.7071 0.7071 -0.7071 0.7071 66.9253 -46.7594)" class="st0" width="3" height="3"/>
<rect x="85.9" y="53.4" transform="matrix(0.7071 0.7071 -0.7071 0.7071 64.4253 -45.7239)" class="st0" width="3" height="3"/>
<rect x="108.4" y="55.9" transform="matrix(0.7071 0.7071 -0.7071 0.7071 72.7831 -60.9016)" class="st0" width="3" height="3"/>
<rect x="105.9" y="53.4" transform="matrix(0.7071 0.7071 -0.7071 0.7071 70.2831 -59.866)" class="st0" width="3" height="3"/>
<rect x="103.4" y="55.9" transform="matrix(0.7071 0.7071 -0.7071 0.7071 71.3187 -57.366)" class="st0" width="3" height="3"/>
<rect x="100.9" y="53.4" transform="matrix(0.7071 0.7071 -0.7071 0.7071 68.8187 -56.3305)" class="st0" width="3" height="3"/>
<rect x="98.4" y="55.9" transform="matrix(0.7071 0.7071 -0.7071 0.7071 69.8542 -53.8305)" class="st0" width="3" height="3"/>
<rect x="110.9" y="53.4" transform="matrix(0.7071 0.7071 -0.7071 0.7071 71.7476 -63.4016)" class="st0" width="3" height="3"/>
<rect x="85.9" y="3.4" transform="matrix(-0.7071 0.7071 -0.7071 -0.7071 152.681 -53.4301)" class="st0" width="3" height="3"/>
<rect x="95.9" y="3.4" transform="matrix(-0.7071 0.7071 -0.7071 -0.7071 169.7521 -60.5011)" class="st0" width="3" height="3"/>
<rect x="83.4" y="0.9" transform="matrix(0.7071 0.7071 -0.7071 0.7071 26.5699 -59.333)" class="st0" width="3" height="3"/>
<rect x="90.9" y="3.4" transform="matrix(-0.7071 0.7071 -0.7071 -0.7071 161.2166 -56.9656)" class="st0" width="3" height="3"/>
<rect x="80.9" y="3.4" transform="matrix(-0.7071 0.7071 -0.7071 -0.7071 144.1455 -49.8945)" class="st0" width="3" height="3"/>
<rect x="93.4" y="0.9" transform="matrix(0.7071 0.7071 -0.7071 0.7071 29.4989 -66.4041)" class="st0" width="3" height="3"/>
<rect x="88.4" y="0.9" transform="matrix(0.7071 0.7071 -0.7071 0.7071 28.0344 -62.8685)" class="st0" width="3" height="3"/>
<rect x="70.9" y="3.4" transform="matrix(-0.7071 0.7071 -0.7071 -0.7071 127.0744 -42.8235)" class="st0" width="3" height="3"/>
<rect x="68.4" y="0.9" transform="matrix(0.7071 0.7071 -0.7071 0.7071 22.1765 -48.7264)" class="st0" width="3" height="3"/>
<rect x="73.4" y="0.9" transform="matrix(0.7071 0.7071 -0.7071 0.7071 23.641 -52.2619)" class="st0" width="3" height="3"/>
<rect x="78.4" y="0.9" transform="matrix(0.7071 0.7071 -0.7071 0.7071 25.1055 -55.7975)" class="st0" width="3" height="3"/>
<rect x="75.9" y="3.4" transform="matrix(-0.7071 0.7071 -0.7071 -0.7071 135.61 -46.359)" class="st0" width="3" height="3"/>
<rect x="105.9" y="3.4" transform="matrix(-0.7071 0.7071 -0.7071 -0.7071 186.8232 -67.5722)" class="st0" width="3" height="3"/>
<rect x="115.9" y="3.4" transform="matrix(-0.7071 0.7071 -0.7071 -0.7071 203.8942 -74.6433)" class="st0" width="3" height="3"/>
<rect x="113.4" y="0.9" transform="matrix(0.7071 0.7071 -0.7071 0.7071 35.3567 -80.5462)" class="st0" width="3" height="3"/>
<rect x="118.4" y="0.9" transform="matrix(0.7071 0.7071 -0.7071 0.7071 36.8212 -84.0817)" class="st0" width="3" height="3"/>
<rect x="123.4" y="5.9" transform="matrix(0.7071 -0.7071 0.7071 0.7071 31.3472 90.4913)" class="st0" width="3" height="3"/>
<rect x="120.9" y="3.4" transform="matrix(-0.7071 0.7071 -0.7071 -0.7071 212.4298 -78.1788)" class="st0" width="3" height="3"/>
<rect x="65.9" y="3.4" transform="matrix(-0.7071 0.7071 -0.7071 -0.7071 118.5389 -39.2879)" class="st0" width="3" height="3"/>
<rect x="98.4" y="0.9" transform="matrix(0.7071 0.7071 -0.7071 0.7071 30.9633 -69.9396)" class="st0" width="3" height="3"/>
<rect x="100.9" y="3.4" transform="matrix(-0.7071 0.7071 -0.7071 -0.7071 178.2876 -64.0367)" class="st0" width="3" height="3"/>
<rect x="110.9" y="3.4" transform="matrix(-0.7071 0.7071 -0.7071 -0.7071 195.3587 -71.1077)" class="st0" width="3" height="3"/>
<rect x="123.4" y="10.9" transform="matrix(0.7071 -0.7071 0.7071 0.7071 27.8116 91.9558)" class="st0" width="3" height="3"/>
<rect x="108.4" y="0.9" transform="matrix(0.7071 0.7071 -0.7071 0.7071 33.8923 -77.0107)" class="st0" width="3" height="3"/>
<rect x="103.4" y="0.9" transform="matrix(0.7071 0.7071 -0.7071 0.7071 32.4278 -73.4751)" class="st0" width="3" height="3"/>
<rect x="3.4" y="45.9" transform="matrix(-0.7071 0.7071 -0.7071 -0.7071 41.8968 77.4583)" class="st0" width="3" height="3"/>
<rect x="3.4" y="55.9" transform="matrix(-0.7071 0.7071 -0.7071 -0.7071 48.9678 94.5294)" class="st0" width="3" height="3"/>
<rect x="3.4" y="40.9" transform="matrix(-0.7071 0.7071 -0.7071 -0.7071 38.3612 68.9228)" class="st0" width="3" height="3"/>
<rect x="3.4" y="50.9" transform="matrix(-0.7071 0.7071 -0.7071 -0.7071 45.4323 85.9938)" class="st0" width="3" height="3"/>
<rect x="3.4" y="35.9" transform="matrix(-0.7071 0.7071 -0.7071 -0.7071 34.8257 60.3872)" class="st0" width="3" height="3"/>
<rect x="3.4" y="30.9" transform="matrix(-0.7071 0.7071 -0.7071 -0.7071 31.2902 51.8517)" class="st0" width="3" height="3"/>
<rect x="13.4" y="55.9" transform="matrix(0.7071 0.7071 -0.7071 0.7071 44.9583 6.2736)" class="st0" width="3" height="3"/>
<rect x="15.9" y="53.4" transform="matrix(0.7071 0.7071 -0.7071 0.7071 43.9228 3.7736)" class="st0" width="3" height="3"/>
<rect x="3.4" y="25.9" transform="matrix(-0.7071 0.7071 -0.7071 -0.7071 27.7546 43.3162)" class="st0" width="3" height="3"/>
<rect x="8.4" y="55.9" transform="matrix(0.7071 0.7071 -0.7071 0.7071 43.4938 9.8091)" class="st0" width="3" height="3"/>
<rect x="5.9" y="53.4" transform="matrix(0.7071 0.7071 -0.7071 0.7071 40.9938 10.8447)" class="st0" width="3" height="3"/>
<rect x="80.9" y="53.4" transform="matrix(0.7071 0.7071 -0.7071 0.7071 62.9608 -42.1884)" class="st0" width="3" height="3"/>
<rect x="3.4" y="20.9" transform="matrix(-0.7071 0.7071 -0.7071 -0.7071 24.2191 34.7806)" class="st0" width="3" height="3"/>
<rect x="15.9" y="8.4" transform="matrix(-0.7071 -0.7071 0.7071 -0.7071 22.7096 29.2191)" class="st0" width="3" height="3"/>
<rect x="13.4" y="5.9" transform="matrix(-0.7071 -0.7071 0.7071 -0.7071 20.2096 23.1836)" class="st0" width="3" height="3"/>
<rect x="10.9" y="8.4" transform="matrix(-0.7071 -0.7071 0.7071 -0.7071 14.174 25.6836)" class="st0" width="3" height="3"/>
<rect x="18.4" y="5.9" transform="matrix(-0.7071 -0.7071 0.7071 -0.7071 28.7451 26.7191)" class="st0" width="3" height="3"/>
<rect x="20.9" y="8.4" transform="matrix(-0.7071 -0.7071 0.7071 -0.7071 31.2451 32.7546)" class="st0" width="3" height="3"/>
<rect x="3.4" y="5.9" transform="matrix(-0.7071 -0.7071 0.7071 -0.7071 3.1385 16.1125)" class="st0" width="3" height="3"/>
<rect x="3.4" y="10.9" transform="matrix(-0.7071 0.7071 -0.7071 -0.7071 17.148 17.7096)" class="st0" width="3" height="3"/>
<rect x="3.4" y="15.9" transform="matrix(-0.7071 0.7071 -0.7071 -0.7071 20.6836 26.2451)" class="st0" width="3" height="3"/>
<rect x="5.9" y="8.4" transform="matrix(-0.7071 -0.7071 0.7071 -0.7071 5.6385 22.148)" class="st0" width="3" height="3"/>
<rect x="8.4" y="5.9" transform="matrix(-0.7071 -0.7071 0.7071 -0.7071 11.674 19.648)" class="st0" width="3" height="3"/>
<rect x="18.4" y="55.9" transform="matrix(0.7071 0.7071 -0.7071 0.7071 46.4228 2.7381)" class="st0" width="3" height="3"/>
<rect x="10.9" y="53.4" transform="matrix(0.7071 0.7071 -0.7071 0.7071 42.4583 7.3091)" class="st0" width="3" height="3"/>
<rect x="60.9" y="53.4" transform="matrix(0.7071 0.7071 -0.7071 0.7071 57.1029 -28.0462)" class="st0" width="3" height="3"/>
<rect x="63.4" y="55.9" transform="matrix(0.7071 0.7071 -0.7071 0.7071 59.6029 -29.0817)" class="st0" width="3" height="3"/>
<rect x="58.4" y="55.9" transform="matrix(0.7071 0.7071 -0.7071 0.7071 58.1385 -25.5462)" class="st0" width="3" height="3"/>
<rect x="53.4" y="55.9" transform="matrix(0.7071 0.7071 -0.7071 0.7071 56.674 -22.0107)" class="st0" width="3" height="3"/>
<rect x="65.9" y="53.4" transform="matrix(0.7071 0.7071 -0.7071 0.7071 58.5674 -31.5817)" class="st0" width="3" height="3"/>
<rect x="55.9" y="53.4" transform="matrix(0.7071 0.7071 -0.7071 0.7071 55.6385 -24.5107)" class="st0" width="3" height="3"/>
<rect x="50.9" y="53.4" transform="matrix(0.7071 0.7071 -0.7071 0.7071 54.174 -20.9751)" class="st0" width="3" height="3"/>
<rect x="78.4" y="55.9" transform="matrix(0.7071 0.7071 -0.7071 0.7071 63.9963 -39.6884)" class="st0" width="3" height="3"/>
<rect x="68.4" y="55.9" transform="matrix(0.7071 0.7071 -0.7071 0.7071 61.0674 -32.6173)" class="st0" width="3" height="3"/>
<rect x="75.9" y="53.4" transform="matrix(0.7071 0.7071 -0.7071 0.7071 61.4963 -38.6528)" class="st0" width="3" height="3"/>
<rect x="20.9" y="53.4" transform="matrix(0.7071 0.7071 -0.7071 0.7071 45.3872 0.2381)" class="st0" width="3" height="3"/>
<rect x="70.9" y="53.4" transform="matrix(0.7071 0.7071 -0.7071 0.7071 60.0319 -35.1173)" class="st0" width="3" height="3"/>
<rect x="73.4" y="55.9" transform="matrix(0.7071 0.7071 -0.7071 0.7071 62.5319 -36.1528)" class="st0" width="3" height="3"/>
<rect x="30.9" y="53.4" transform="matrix(0.7071 0.7071 -0.7071 0.7071 48.3162 -6.833)" class="st0" width="3" height="3"/>
<rect x="33.4" y="55.9" transform="matrix(0.7071 0.7071 -0.7071 0.7071 50.8162 -7.8685)" class="st0" width="3" height="3"/>
<rect x="28.4" y="55.9" transform="matrix(0.7071 0.7071 -0.7071 0.7071 49.3517 -4.333)" class="st0" width="3" height="3"/>
<rect x="25.9" y="53.4" transform="matrix(0.7071 0.7071 -0.7071 0.7071 46.8517 -3.2975)" class="st0" width="3" height="3"/>
<rect x="23.4" y="55.9" transform="matrix(0.7071 0.7071 -0.7071 0.7071 47.8872 -0.7975)" class="st0" width="3" height="3"/>
<rect x="48.4" y="55.9" transform="matrix(0.7071 0.7071 -0.7071 0.7071 55.2096 -18.4751)" class="st0" width="3" height="3"/>
<rect x="43.4" y="55.9" transform="matrix(0.7071 0.7071 -0.7071 0.7071 53.7451 -14.9396)" class="st0" width="3" height="3"/>
<rect x="45.9" y="53.4" transform="matrix(0.7071 0.7071 -0.7071 0.7071 52.7096 -17.4396)" class="st0" width="3" height="3"/>
<rect x="40.9" y="53.4" transform="matrix(0.7071 0.7071 -0.7071 0.7071 51.2451 -13.9041)" class="st0" width="3" height="3"/>
<rect x="35.9" y="53.4" transform="matrix(0.7071 0.7071 -0.7071 0.7071 49.7806 -10.3685)" class="st0" width="3" height="3"/>
<rect x="38.4" y="55.9" transform="matrix(0.7071 0.7071 -0.7071 0.7071 52.2806 -11.4041)" class="st0" width="3" height="3"/>
<rect x="63.4" y="60.9" transform="matrix(-0.7071 -0.7071 0.7071 -0.7071 66.674 152.4298)" class="st0" width="3" height="3"/>
<rect x="75.9" y="58.4" transform="matrix(0.7071 -0.7071 0.7071 0.7071 -19.6884 72.2806)" class="st0" width="3" height="3"/>
<rect x="95.9" y="58.4" transform="matrix(0.7071 -0.7071 0.7071 0.7071 -13.8305 86.4228)" class="st0" width="3" height="3"/>
<rect x="78.4" y="60.9" transform="matrix(-0.7071 -0.7071 0.7071 -0.7071 92.2806 163.0364)" class="st0" width="3" height="3"/>
<rect x="80.9" y="58.4" transform="matrix(0.7071 -0.7071 0.7071 0.7071 -18.2239 75.8162)" class="st0" width="3" height="3"/>
<rect x="70.9" y="58.4" transform="matrix(0.7071 -0.7071 0.7071 0.7071 -21.1528 68.7451)" class="st0" width="3" height="3"/>
<rect x="68.4" y="60.9" transform="matrix(-0.7071 -0.7071 0.7071 -0.7071 75.2095 155.9653)" class="st0" width="3" height="3"/>
<rect x="93.4" y="60.9" transform="matrix(-0.7071 -0.7071 0.7071 -0.7071 117.8872 173.643)" class="st0" width="3" height="3"/>
<rect x="65.9" y="58.4" transform="matrix(0.7071 -0.7071 0.7071 0.7071 -22.6173 65.2095)" class="st0" width="3" height="3"/>
<rect x="83.4" y="60.9" transform="matrix(-0.7071 -0.7071 0.7071 -0.7071 100.8162 166.5719)" class="st0" width="3" height="3"/>
<rect x="90.9" y="58.4" transform="matrix(0.7071 -0.7071 0.7071 0.7071 -15.295 82.8872)" class="st0" width="3" height="3"/>
<rect x="85.9" y="58.4" transform="matrix(0.7071 -0.7071 0.7071 0.7071 -16.7594 79.3517)" class="st0" width="3" height="3"/>
<rect x="88.4" y="60.9" transform="matrix(-0.7071 -0.7071 0.7071 -0.7071 109.3517 170.1075)" class="st0" width="3" height="3"/>
<rect x="73.4" y="60.9" transform="matrix(-0.7071 -0.7071 0.7071 -0.7071 83.7451 159.5009)" class="st0" width="3" height="3"/>
<rect x="48.4" y="60.9" transform="matrix(-0.7071 -0.7071 0.7071 -0.7071 41.0674 141.8232)" class="st0" width="3" height="3"/>
<rect x="43.4" y="60.9" transform="matrix(-0.7071 -0.7071 0.7071 -0.7071 32.5319 138.2876)" class="st0" width="3" height="3"/>
<rect x="45.9" y="58.4" transform="matrix(0.7071 -0.7071 0.7071 0.7071 -28.4751 51.0674)" class="st0" width="3" height="3"/>
<rect x="23.4" y="5.9" transform="matrix(-0.7071 -0.7071 0.7071 -0.7071 37.2806 30.2546)" class="st0" width="3" height="3"/>
<rect x="38.4" y="60.9" transform="matrix(-0.7071 -0.7071 0.7071 -0.7071 23.9963 134.7521)" class="st0" width="3" height="3"/>
<rect x="40.9" y="58.4" transform="matrix(0.7071 -0.7071 0.7071 0.7071 -29.9396 47.5319)" class="st0" width="3" height="3"/>
<rect x="58.4" y="60.9" transform="matrix(-0.7071 -0.7071 0.7071 -0.7071 58.1385 148.8942)" class="st0" width="3" height="3"/>
<rect x="60.9" y="58.4" transform="matrix(0.7071 -0.7071 0.7071 0.7071 -24.0817 61.674)" class="st0" width="3" height="3"/>
<rect x="53.4" y="60.9" transform="matrix(-0.7071 -0.7071 0.7071 -0.7071 49.6029 145.3587)" class="st0" width="3" height="3"/>
<rect x="50.9" y="58.4" transform="matrix(0.7071 -0.7071 0.7071 0.7071 -27.0107 54.6029)" class="st0" width="3" height="3"/>
<rect x="55.9" y="58.4" transform="matrix(0.7071 -0.7071 0.7071 0.7071 -25.5462 58.1385)" class="st0" width="3" height="3"/>
<rect x="123.4" y="60.9" transform="matrix(-0.7071 -0.7071 0.7071 -0.7071 169.1004 194.8562)" class="st0" width="3" height="3"/>
<rect x="125.9" y="38.4" transform="matrix(-0.7071 -0.7071 0.7071 -0.7071 189.2781 158.2141)" class="st0" width="3" height="3"/>
<rect x="125.9" y="53.4" transform="matrix(-0.7071 -0.7071 0.7071 -0.7071 178.6715 183.8206)" class="st0" width="3" height="3"/>
<rect x="125.9" y="23.4" transform="matrix(-0.7071 -0.7071 0.7071 -0.7071 199.8847 132.6075)" class="st0" width="3" height="3"/>
<rect x="125.9" y="28.4" transform="matrix(-0.7071 -0.7071 0.7071 -0.7071 196.3492 141.143)" class="st0" width="3" height="3"/>
<rect x="125.9" y="48.4" transform="matrix(-0.7071 -0.7071 0.7071 -0.7071 182.207 175.2851)" class="st0" width="3" height="3"/>
<rect x="125.9" y="43.4" transform="matrix(-0.7071 -0.7071 0.7071 -0.7071 185.7426 166.7496)" class="st0" width="3" height="3"/>
<rect x="125.9" y="33.4" transform="matrix(-0.7071 -0.7071 0.7071 -0.7071 192.8136 149.6785)" class="st0" width="3" height="3"/>
<rect x="98.4" y="60.9" transform="matrix(-0.7071 -0.7071 0.7071 -0.7071 126.4228 177.1785)" class="st0" width="3" height="3"/>
<rect x="8.4" y="30.9" transform="matrix(-0.7071 0.7071 -0.7071 -0.7071 39.8257 48.3162)" class="st0" width="3" height="3"/>
<rect x="125.9" y="8.4" transform="matrix(-0.7071 -0.7071 0.7071 -0.7071 210.4913 107.0008)" class="st0" width="3" height="3"/>
<rect x="125.9" y="18.4" transform="matrix(-0.7071 -0.7071 0.7071 -0.7071 203.4202 124.0719)" class="st0" width="3" height="3"/>
<rect x="125.9" y="13.4" transform="matrix(-0.7071 -0.7071 0.7071 -0.7071 206.9558 115.5364)" class="st0" width="3" height="3"/>
<rect x="125.9" y="3.4" transform="matrix(-0.7071 -0.7071 0.7071 -0.7071 214.0268 98.4653)" class="st0" width="3" height="3"/>
<rect x="108.4" y="60.9" transform="matrix(-0.7071 -0.7071 0.7071 -0.7071 143.4938 184.2496)" class="st0" width="3" height="3"/>
<rect x="105.9" y="58.4" transform="matrix(0.7071 -0.7071 0.7071 0.7071 -10.9016 93.4938)" class="st0" width="3" height="3"/>
<rect x="110.9" y="58.4" transform="matrix(0.7071 -0.7071 0.7071 0.7071 -9.4371 97.0294)" class="st0" width="3" height="3"/>
<rect x="103.4" y="60.9" transform="matrix(-0.7071 -0.7071 0.7071 -0.7071 134.9583 180.7141)" class="st0" width="3" height="3"/>
<rect x="100.9" y="58.4" transform="matrix(0.7071 -0.7071 0.7071 0.7071 -12.366 89.9583)" class="st0" width="3" height="3"/>
<rect x="113.4" y="60.9" transform="matrix(-0.7071 -0.7071 0.7071 -0.7071 152.0294 187.7851)" class="st0" width="3" height="3"/>
<rect x="35.9" y="58.4" transform="matrix(0.7071 -0.7071 0.7071 0.7071 -31.4041 43.9963)" class="st0" width="3" height="3"/>
<rect x="120.9" y="58.4" transform="matrix(0.7071 -0.7071 0.7071 0.7071 -6.5082 104.1004)" class="st0" width="3" height="3"/>
<rect x="115.9" y="58.4" transform="matrix(0.7071 -0.7071 0.7071 0.7071 -7.9726 100.5649)" class="st0" width="3" height="3"/>
<rect x="118.4" y="60.9" transform="matrix(-0.7071 -0.7071 0.7071 -0.7071 160.5649 191.3206)" class="st0" width="3" height="3"/>
<rect x="125.9" y="58.4" transform="matrix(-0.7071 -0.7071 0.7071 -0.7071 175.136 192.3562)" class="st0" width="3" height="3"/>
<rect x="0.9" y="8.4" transform="matrix(0.7071 0.7071 -0.7071 0.7071 7.7096 1.2)" class="st0" width="3" height="3"/>
<rect x="15.9" y="3.4" transform="matrix(-0.7071 0.7071 -0.7071 -0.7071 33.1836 -3.9326)" class="st0" width="3" height="3"/>
<rect x="30.9" y="3.4" transform="matrix(-0.7071 0.7071 -0.7071 -0.7071 58.7902 -14.5392)" class="st0" width="3" height="3"/>
<rect x="18.4" y="0.9" transform="matrix(0.7071 0.7071 -0.7071 0.7071 7.5319 -13.3711)" class="st0" width="3" height="3"/>
<rect x="23.4" y="0.9" transform="matrix(0.7071 0.7071 -0.7071 0.7071 8.9963 -16.9066)" class="st0" width="3" height="3"/>
<rect x="28.4" y="0.9" transform="matrix(0.7071 0.7071 -0.7071 0.7071 10.4608 -20.4421)" class="st0" width="3" height="3"/>
<rect x="25.9" y="3.4" transform="matrix(-0.7071 0.7071 -0.7071 -0.7071 50.2546 -11.0037)" class="st0" width="3" height="3"/>
<rect x="20.9" y="3.4" transform="matrix(-0.7071 0.7071 -0.7071 -0.7071 41.7191 -7.4681)" class="st0" width="3" height="3"/>
<rect x="3.4" y="0.9" transform="matrix(0.7071 0.7071 -0.7071 0.7071 3.1385 -2.7645)" class="st0" width="3" height="3"/>
<rect x="5.9" y="3.4" transform="matrix(-0.7071 0.7071 -0.7071 -0.7071 16.1125 3.1385)" class="st0" width="3" height="3"/>
<rect x="8.4" y="0.9" transform="matrix(0.7071 0.7071 -0.7071 0.7071 4.6029 -6.3)" class="st0" width="3" height="3"/>
<rect x="13.4" y="0.9" transform="matrix(0.7071 0.7071 -0.7071 0.7071 6.0674 -9.8355)" class="st0" width="3" height="3"/>
<rect x="10.9" y="3.4" transform="matrix(-0.7071 0.7071 -0.7071 -0.7071 24.648 -0.3971)" class="st0" width="3" height="3"/>
<rect x="35.9" y="3.4" transform="matrix(-0.7071 0.7071 -0.7071 -0.7071 67.3257 -18.0747)" class="st0" width="3" height="3"/>
<rect x="55.9" y="3.4" transform="matrix(-0.7071 0.7071 -0.7071 -0.7071 101.4678 -32.2169)" class="st0" width="3" height="3"/>
<rect x="53.4" y="0.9" transform="matrix(0.7071 0.7071 -0.7071 0.7071 17.7831 -38.1198)" class="st0" width="3" height="3"/>
<rect x="58.4" y="0.9" transform="matrix(0.7071 0.7071 -0.7071 0.7071 19.2476 -41.6553)" class="st0" width="3" height="3"/>
<rect x="50.9" y="3.4" transform="matrix(-0.7071 0.7071 -0.7071 -0.7071 92.9323 -28.6813)" class="st0" width="3" height="3"/>
<rect x="60.9" y="3.4" transform="matrix(-0.7071 0.7071 -0.7071 -0.7071 110.0034 -35.7524)" class="st0" width="3" height="3"/>
<rect x="45.9" y="3.4" transform="matrix(-0.7071 0.7071 -0.7071 -0.7071 84.3968 -25.1458)" class="st0" width="3" height="3"/>
<rect x="0.9" y="3.4" transform="matrix(0.7071 0.7071 -0.7071 0.7071 4.174 -0.2645)" class="st0" width="3" height="3"/>
<rect x="38.4" y="0.9" transform="matrix(0.7071 0.7071 -0.7071 0.7071 13.3897 -27.5132)" class="st0" width="3" height="3"/>
<rect x="33.4" y="0.9" transform="matrix(0.7071 0.7071 -0.7071 0.7071 11.9253 -23.9777)" class="st0" width="3" height="3"/>
<rect x="40.9" y="3.4" transform="matrix(-0.7071 0.7071 -0.7071 -0.7071 75.8612 -21.6103)" class="st0" width="3" height="3"/>
<rect x="48.4" y="0.9" transform="matrix(0.7071 0.7071 -0.7071 0.7071 16.3187 -34.5843)" class="st0" width="3" height="3"/>
<rect x="0.9" y="23.4" transform="matrix(0.7071 0.7071 -0.7071 0.7071 18.3162 5.5934)" class="st0" width="3" height="3"/>
<rect x="13.4" y="60.9" transform="matrix(-0.7071 -0.7071 0.7071 -0.7071 -18.6813 117.0744)" class="st0" width="3" height="3"/>
<rect x="18.4" y="60.9" transform="matrix(-0.7071 -0.7071 0.7071 -0.7071 -10.1458 120.61)" class="st0" width="3" height="3"/>
<rect x="5.9" y="58.4" transform="matrix(0.7071 -0.7071 0.7071 0.7071 -40.1909 22.7831)" class="st0" width="3" height="3"/>
<rect x="10.9" y="58.4" transform="matrix(0.7071 -0.7071 0.7071 0.7071 -38.7264 26.3187)" class="st0" width="3" height="3"/>
<rect x="8.4" y="60.9" transform="matrix(-0.7071 -0.7071 0.7071 -0.7071 -27.2169 113.5389)" class="st0" width="3" height="3"/>
<rect x="15.9" y="58.4" transform="matrix(0.7071 -0.7071 0.7071 0.7071 -37.2619 29.8542)" class="st0" width="3" height="3"/>
<rect x="28.4" y="60.9" transform="matrix(-0.7071 -0.7071 0.7071 -0.7071 6.9253 127.681)" class="st0" width="3" height="3"/>
<rect x="20.9" y="58.4" transform="matrix(0.7071 -0.7071 0.7071 0.7071 -35.7975 33.3897)" class="st0" width="3" height="3"/>
<rect x="30.9" y="58.4" transform="matrix(0.7071 -0.7071 0.7071 0.7071 -32.8685 40.4608)" class="st0" width="3" height="3"/>
<rect x="25.9" y="58.4" transform="matrix(0.7071 -0.7071 0.7071 0.7071 -34.333 36.9253)" class="st0" width="3" height="3"/>
<rect x="23.4" y="60.9" transform="matrix(-0.7071 -0.7071 0.7071 -0.7071 -1.6103 124.1455)" class="st0" width="3" height="3"/>
<rect x="0.9" y="53.4" transform="matrix(0.7071 0.7071 -0.7071 0.7071 39.5294 14.3802)" class="st0" width="3" height="3"/>
<rect x="0.9" y="28.4" transform="matrix(0.7071 0.7071 -0.7071 0.7071 21.8517 7.0579)" class="st0" width="3" height="3"/>
<rect x="0.9" y="33.4" transform="matrix(0.7071 0.7071 -0.7071 0.7071 25.3872 8.5223)" class="st0" width="3" height="3"/>
<rect x="33.4" y="60.9" transform="matrix(-0.7071 -0.7071 0.7071 -0.7071 15.4608 131.2166)" class="st0" width="3" height="3"/>
<rect x="0.9" y="18.4" transform="matrix(0.7071 0.7071 -0.7071 0.7071 14.7806 4.1289)" class="st0" width="3" height="3"/>
<rect x="0.9" y="13.4" transform="matrix(0.7071 0.7071 -0.7071 0.7071 11.2451 2.6645)" class="st0" width="3" height="3"/>
<rect x="0.9" y="58.4" transform="matrix(0.7071 -0.7071 0.7071 0.7071 -41.6553 19.2476)" class="st0" width="3" height="3"/>
<rect x="0.9" y="38.4" transform="matrix(0.7071 0.7071 -0.7071 0.7071 28.9228 9.9868)" class="st0" width="3" height="3"/>
<rect x="63.4" y="0.9" transform="matrix(0.7071 0.7071 -0.7071 0.7071 20.7121 -45.1909)" class="st0" width="3" height="3"/>
<rect x="3.4" y="60.9" transform="matrix(-0.7071 -0.7071 0.7071 -0.7071 -35.7524 110.0034)" class="st0" width="3" height="3"/>
<rect x="0.9" y="43.4" transform="matrix(0.7071 0.7071 -0.7071 0.7071 32.4583 11.4513)" class="st0" width="3" height="3"/>
<rect x="0.9" y="48.4" transform="matrix(0.7071 0.7071 -0.7071 0.7071 35.9938 12.9157)" class="st0" width="3" height="3"/>
<rect x="43.4" y="0.9" transform="matrix(0.7071 0.7071 -0.7071 0.7071 14.8542 -31.0487)" class="st0" width="3" height="3"/>
<rect x="100.9" y="13.4" transform="matrix(-0.7071 -0.7071 0.7071 -0.7071 164.2781 97.8587)" class="st0" width="3" height="3"/>
<rect x="90.9" y="13.4" transform="matrix(-0.7071 -0.7071 0.7071 -0.7071 147.207 90.7876)" class="st0" width="3" height="3"/>
<rect x="88.4" y="10.9" transform="matrix(-0.7071 -0.7071 0.7071 -0.7071 144.707 84.7521)" class="st0" width="3" height="3"/>
<rect x="85.9" y="13.4" transform="matrix(-0.7071 -0.7071 0.7071 -0.7071 138.6715 87.2521)" class="st0" width="3" height="3"/>
<rect x="98.4" y="10.9" transform="matrix(-0.7071 -0.7071 0.7071 -0.7071 161.7781 91.8232)" class="st0" width="3" height="3"/>
<rect x="5.9" y="13.4" transform="matrix(-0.7071 -0.7071 0.7071 -0.7071 2.1029 30.6836)" class="st0" width="3" height="3"/>
<rect x="93.4" y="10.9" transform="matrix(-0.7071 -0.7071 0.7071 -0.7071 153.2426 88.2876)" class="st0" width="3" height="3"/>
<rect x="75.9" y="13.4" transform="matrix(-0.7071 -0.7071 0.7071 -0.7071 121.6004 80.181)" class="st0" width="3" height="3"/>
<rect x="73.4" y="10.9" transform="matrix(-0.7071 -0.7071 0.7071 -0.7071 119.1004 74.1455)" class="st0" width="3" height="3"/>
<rect x="80.9" y="13.4" transform="matrix(-0.7071 -0.7071 0.7071 -0.7071 130.136 83.7166)" class="st0" width="3" height="3"/>
<rect x="83.4" y="10.9" transform="matrix(-0.7071 -0.7071 0.7071 -0.7071 136.1715 81.2166)" class="st0" width="3" height="3"/>
<rect x="78.4" y="10.9" transform="matrix(-0.7071 -0.7071 0.7071 -0.7071 127.636 77.681)" class="st0" width="3" height="3"/>
<rect x="108.4" y="10.9" transform="matrix(-0.7071 -0.7071 0.7071 -0.7071 178.8492 98.8942)" class="st0" width="3" height="3"/>
<rect x="118.4" y="15.9" transform="matrix(0.7071 -0.7071 0.7071 0.7071 22.8116 89.8847)" class="st0" width="3" height="3"/>
<rect x="118.4" y="10.9" transform="matrix(0.7071 -0.7071 0.7071 0.7071 26.3472 88.4202)" class="st0" width="3" height="3"/>
<rect x="118.4" y="35.9" transform="matrix(0.7071 -0.7071 0.7071 0.7071 8.6695 95.7426)" class="st0" width="3" height="3"/>
<rect x="118.4" y="30.9" transform="matrix(0.7071 -0.7071 0.7071 0.7071 12.205 94.2781)" class="st0" width="3" height="3"/>
<rect x="118.4" y="25.9" transform="matrix(0.7071 -0.7071 0.7071 0.7071 15.7406 92.8136)" class="st0" width="3" height="3"/>
<rect x="110.9" y="13.4" transform="matrix(-0.7071 -0.7071 0.7071 -0.7071 181.3492 104.9298)" class="st0" width="3" height="3"/>
<rect x="105.9" y="13.4" transform="matrix(-0.7071 -0.7071 0.7071 -0.7071 172.8136 101.3942)" class="st0" width="3" height="3"/>
<rect x="70.9" y="13.4" transform="matrix(-0.7071 -0.7071 0.7071 -0.7071 113.0649 76.6455)" class="st0" width="3" height="3"/>
<rect x="103.4" y="10.9" transform="matrix(-0.7071 -0.7071 0.7071 -0.7071 170.3136 95.3587)" class="st0" width="3" height="3"/>
<rect x="115.9" y="13.4" transform="matrix(-0.7071 -0.7071 0.7071 -0.7071 189.8847 108.4653)" class="st0" width="3" height="3"/>
<rect x="113.4" y="10.9" transform="matrix(-0.7071 -0.7071 0.7071 -0.7071 187.3847 102.4298)" class="st0" width="3" height="3"/>
<rect x="118.4" y="20.9" transform="matrix(0.7071 -0.7071 0.7071 0.7071 19.2761 91.3492)" class="st0" width="3" height="3"/>
<rect x="30.9" y="13.4" transform="matrix(-0.7071 -0.7071 0.7071 -0.7071 44.7806 48.3612)" class="st0" width="3" height="3"/>
<rect x="28.4" y="10.9" transform="matrix(-0.7071 -0.7071 0.7071 -0.7071 42.2806 42.3257)" class="st0" width="3" height="3"/>
<rect x="25.9" y="13.4" transform="matrix(-0.7071 -0.7071 0.7071 -0.7071 36.2451 44.8257)" class="st0" width="3" height="3"/>
<rect x="35.9" y="13.4" transform="matrix(-0.7071 -0.7071 0.7071 -0.7071 53.3162 51.8968)" class="st0" width="3" height="3"/>
<rect x="33.4" y="10.9" transform="matrix(-0.7071 -0.7071 0.7071 -0.7071 50.8162 45.8612)" class="st0" width="3" height="3"/>
<rect x="38.4" y="10.9" transform="matrix(-0.7071 -0.7071 0.7071 -0.7071 59.3517 49.3968)" class="st0" width="3" height="3"/>
<rect x="23.4" y="10.9" transform="matrix(-0.7071 -0.7071 0.7071 -0.7071 33.7451 38.7902)" class="st0" width="3" height="3"/>
<rect x="20.9" y="13.4" transform="matrix(-0.7071 -0.7071 0.7071 -0.7071 27.7096 41.2902)" class="st0" width="3" height="3"/>
<rect x="10.9" y="13.4" transform="matrix(-0.7071 -0.7071 0.7071 -0.7071 10.6385 34.2191)" class="st0" width="3" height="3"/>
<rect x="13.4" y="10.9" transform="matrix(-0.7071 -0.7071 0.7071 -0.7071 16.674 31.7191)" class="st0" width="3" height="3"/>
<rect x="15.9" y="13.4" transform="matrix(-0.7071 -0.7071 0.7071 -0.7071 19.174 37.7546)" class="st0" width="3" height="3"/>
<rect x="18.4" y="10.9" transform="matrix(-0.7071 -0.7071 0.7071 -0.7071 25.2096 35.2546)" class="st0" width="3" height="3"/>
<rect x="58.4" y="10.9" transform="matrix(-0.7071 -0.7071 0.7071 -0.7071 93.4938 63.5389)" class="st0" width="3" height="3"/>
<rect x="68.4" y="10.9" transform="matrix(-0.7071 -0.7071 0.7071 -0.7071 110.5649 70.61)" class="st0" width="3" height="3"/>
<rect x="60.9" y="13.4" transform="matrix(-0.7071 -0.7071 0.7071 -0.7071 95.9938 69.5744)" class="st0" width="3" height="3"/>
<rect x="55.9" y="13.4" transform="matrix(-0.7071 -0.7071 0.7071 -0.7071 87.4583 66.0389)" class="st0" width="3" height="3"/>
<rect x="40.9" y="13.4" transform="matrix(-0.7071 -0.7071 0.7071 -0.7071 61.8517 55.4323)" class="st0" width="3" height="3"/>
<rect x="65.9" y="13.4" transform="matrix(-0.7071 -0.7071 0.7071 -0.7071 104.5294 73.11)" class="st0" width="3" height="3"/>
<rect x="63.4" y="10.9" transform="matrix(-0.7071 -0.7071 0.7071 -0.7071 102.0294 67.0744)" class="st0" width="3" height="3"/>
<rect x="43.4" y="10.9" transform="matrix(-0.7071 -0.7071 0.7071 -0.7071 67.8872 52.9323)" class="st0" width="3" height="3"/>
<rect x="45.9" y="13.4" transform="matrix(-0.7071 -0.7071 0.7071 -0.7071 70.3872 58.9678)" class="st0" width="3" height="3"/>
<rect x="25.9" y="8.4" transform="matrix(-0.7071 -0.7071 0.7071 -0.7071 39.7806 36.2902)" class="st0" width="3" height="3"/>
<rect x="50.9" y="13.4" transform="matrix(-0.7071 -0.7071 0.7071 -0.7071 78.9228 62.5034)" class="st0" width="3" height="3"/>
<rect x="48.4" y="10.9" transform="matrix(-0.7071 -0.7071 0.7071 -0.7071 76.4228 56.4678)" class="st0" width="3" height="3"/>
<rect x="95.9" y="13.4" transform="matrix(-0.7071 -0.7071 0.7071 -0.7071 155.7426 94.3232)" class="st0" width="3" height="3"/>
<rect x="40.9" y="43.4" transform="matrix(0.7071 0.7071 -0.7071 0.7071 44.174 -16.833)" class="st0" width="3" height="3"/>
<rect x="38.4" y="45.9" transform="matrix(0.7071 0.7071 -0.7071 0.7071 45.2096 -14.333)" class="st0" width="3" height="3"/>
<rect x="45.9" y="43.4" transform="matrix(0.7071 0.7071 -0.7071 0.7071 45.6385 -20.3685)" class="st0" width="3" height="3"/>
<rect x="43.4" y="45.9" transform="matrix(0.7071 0.7071 -0.7071 0.7071 46.674 -17.8685)" class="st0" width="3" height="3"/>
<rect x="35.9" y="43.4" transform="matrix(0.7071 0.7071 -0.7071 0.7071 42.7096 -13.2975)" class="st0" width="3" height="3"/>
<rect x="33.4" y="45.9" transform="matrix(0.7071 0.7071 -0.7071 0.7071 43.7451 -10.7975)" class="st0" width="3" height="3"/>
<rect x="118.4" y="40.9" transform="matrix(0.7071 -0.7071 0.7071 0.7071 5.134 97.207)" class="st0" width="3" height="3"/>
<rect x="30.9" y="43.4" transform="matrix(0.7071 0.7071 -0.7071 0.7071 41.2451 -9.7619)" class="st0" width="3" height="3"/>
<rect x="48.4" y="45.9" transform="matrix(0.7071 0.7071 -0.7071 0.7071 48.1385 -21.4041)" class="st0" width="3" height="3"/>
<rect x="55.9" y="43.4" transform="matrix(0.7071 0.7071 -0.7071 0.7071 48.5674 -27.4396)" class="st0" width="3" height="3"/>
<rect x="53.4" y="45.9" transform="matrix(0.7071 0.7071 -0.7071 0.7071 49.6029 -24.9396)" class="st0" width="3" height="3"/>
<rect x="50.9" y="43.4" transform="matrix(0.7071 0.7071 -0.7071 0.7071 47.1029 -23.9041)" class="st0" width="3" height="3"/>
<rect x="8.4" y="35.9" transform="matrix(-0.7071 0.7071 -0.7071 -0.7071 43.3612 56.8517)" class="st0" width="3" height="3"/>
<rect x="10.9" y="43.4" transform="matrix(0.7071 0.7071 -0.7071 0.7071 35.3872 4.3802)" class="st0" width="3" height="3"/>
<rect x="8.4" y="45.9" transform="matrix(-0.7071 0.7071 -0.7071 -0.7071 50.4323 73.9228)" class="st0" width="3" height="3"/>
<rect x="8.4" y="40.9" transform="matrix(-0.7071 0.7071 -0.7071 -0.7071 46.8968 65.3872)" class="st0" width="3" height="3"/>
<rect x="13.4" y="45.9" transform="matrix(0.7071 0.7071 -0.7071 0.7071 37.8872 3.3447)" class="st0" width="3" height="3"/>
<rect x="60.9" y="43.4" transform="matrix(0.7071 0.7071 -0.7071 0.7071 50.0319 -30.9751)" class="st0" width="3" height="3"/>
<rect x="23.4" y="45.9" transform="matrix(0.7071 0.7071 -0.7071 0.7071 40.8162 -3.7264)" class="st0" width="3" height="3"/>
<rect x="15.9" y="43.4" transform="matrix(0.7071 0.7071 -0.7071 0.7071 36.8517 0.8447)" class="st0" width="3" height="3"/>
<rect x="25.9" y="43.4" transform="matrix(0.7071 0.7071 -0.7071 0.7071 39.7806 -6.2264)" class="st0" width="3" height="3"/>
<rect x="28.4" y="45.9" transform="matrix(0.7071 0.7071 -0.7071 0.7071 42.2806 -7.2619)" class="st0" width="3" height="3"/>
<rect x="18.4" y="45.9" transform="matrix(0.7071 0.7071 -0.7071 0.7071 39.3517 -0.1909)" class="st0" width="3" height="3"/>
<rect x="20.9" y="43.4" transform="matrix(0.7071 0.7071 -0.7071 0.7071 38.3162 -2.6909)" class="st0" width="3" height="3"/>
<rect x="58.4" y="45.9" transform="matrix(0.7071 0.7071 -0.7071 0.7071 51.0674 -28.4751)" class="st0" width="3" height="3"/>
<rect x="103.4" y="45.9" transform="matrix(0.7071 0.7071 -0.7071 0.7071 64.2476 -60.295)" class="st0" width="3" height="3"/>
<rect x="100.9" y="43.4" transform="matrix(0.7071 0.7071 -0.7071 0.7071 61.7476 -59.2594)" class="st0" width="3" height="3"/>
<rect x="98.4" y="45.9" transform="matrix(0.7071 0.7071 -0.7071 0.7071 62.7831 -56.7594)" class="st0" width="3" height="3"/>
<rect x="95.9" y="43.4" transform="matrix(0.7071 0.7071 -0.7071 0.7071 60.2831 -55.7239)" class="st0" width="3" height="3"/>
<rect x="93.4" y="45.9" transform="matrix(0.7071 0.7071 -0.7071 0.7071 61.3187 -53.2239)" class="st0" width="3" height="3"/>
<rect x="105.9" y="43.4" transform="matrix(0.7071 0.7071 -0.7071 0.7071 63.2121 -62.795)" class="st0" width="3" height="3"/>
<rect x="118.4" y="45.9" transform="matrix(0.7071 0.7071 -0.7071 0.7071 68.641 -70.9016)" class="st0" width="3" height="3"/>
<rect x="115.9" y="43.4" transform="matrix(0.7071 0.7071 -0.7071 0.7071 66.141 -69.866)" class="st0" width="3" height="3"/>
<rect x="110.9" y="43.4" transform="matrix(0.7071 0.7071 -0.7071 0.7071 64.6765 -66.3305)" class="st0" width="3" height="3"/>
<rect x="113.4" y="45.9" transform="matrix(0.7071 0.7071 -0.7071 0.7071 67.1765 -67.366)" class="st0" width="3" height="3"/>
<rect x="108.4" y="45.9" transform="matrix(0.7071 0.7071 -0.7071 0.7071 65.7121 -63.8305)" class="st0" width="3" height="3"/>
<rect x="80.9" y="43.4" transform="matrix(0.7071 0.7071 -0.7071 0.7071 55.8897 -45.1173)" class="st0" width="3" height="3"/>
<rect x="73.4" y="45.9" transform="matrix(0.7071 0.7071 -0.7071 0.7071 55.4608 -39.0817)" class="st0" width="3" height="3"/>
<rect x="70.9" y="43.4" transform="matrix(0.7071 0.7071 -0.7071 0.7071 52.9608 -38.0462)" class="st0" width="3" height="3"/>
<rect x="75.9" y="43.4" transform="matrix(0.7071 0.7071 -0.7071 0.7071 54.4253 -41.5817)" class="st0" width="3" height="3"/>
<rect x="68.4" y="45.9" transform="matrix(0.7071 0.7071 -0.7071 0.7071 53.9963 -35.5462)" class="st0" width="3" height="3"/>
<rect x="65.9" y="43.4" transform="matrix(0.7071 0.7071 -0.7071 0.7071 51.4963 -34.5107)" class="st0" width="3" height="3"/>
<rect x="90.9" y="43.4" transform="matrix(0.7071 0.7071 -0.7071 0.7071 58.8187 -52.1884)" class="st0" width="3" height="3"/>
<rect x="88.4" y="45.9" transform="matrix(0.7071 0.7071 -0.7071 0.7071 59.8542 -49.6884)" class="st0" width="3" height="3"/>
<rect x="78.4" y="45.9" transform="matrix(0.7071 0.7071 -0.7071 0.7071 56.9253 -42.6173)" class="st0" width="3" height="3"/>
<rect x="85.9" y="43.4" transform="matrix(0.7071 0.7071 -0.7071 0.7071 57.3542 -48.6528)" class="st0" width="3" height="3"/>
<rect x="83.4" y="45.9" transform="matrix(0.7071 0.7071 -0.7071 0.7071 58.3897 -46.1528)" class="st0" width="3" height="3"/>
<rect x="63.4" y="45.9" transform="matrix(0.7071 0.7071 -0.7071 0.7071 52.5319 -32.0107)" class="st0" width="3" height="3"/>
<rect x="53.4" y="10.9" transform="matrix(-0.7071 -0.7071 0.7071 -0.7071 84.9583 60.0034)" class="st0" width="3" height="3"/>
<rect x="110.9" y="8.4" transform="matrix(-0.7071 -0.7071 0.7071 -0.7071 184.8847 96.3942)" class="st0" width="3" height="3"/>
<rect x="118.4" y="5.9" transform="matrix(-0.7071 -0.7071 0.7071 -0.7071 199.4558 97.4298)" class="st0" width="3" height="3"/>
<rect x="105.9" y="8.4" transform="matrix(-0.7071 -0.7071 0.7071 -0.7071 176.3492 92.8587)" class="st0" width="3" height="3"/>
<rect x="103.4" y="5.9" transform="matrix(-0.7071 -0.7071 0.7071 -0.7071 173.8492 86.8232)" class="st0" width="3" height="3"/>
<rect x="113.4" y="5.9" transform="matrix(-0.7071 -0.7071 0.7071 -0.7071 190.9202 93.8942)" class="st0" width="3" height="3"/>
<rect x="115.9" y="8.4" transform="matrix(-0.7071 -0.7071 0.7071 -0.7071 193.4202 99.9298)" class="st0" width="3" height="3"/>
<rect x="108.4" y="5.9" transform="matrix(-0.7071 -0.7071 0.7071 -0.7071 182.3847 90.3587)" class="st0" width="3" height="3"/>
<rect x="100.9" y="8.4" transform="matrix(-0.7071 -0.7071 0.7071 -0.7071 167.8136 89.3232)" class="st0" width="3" height="3"/>
<rect x="90.9" y="8.4" transform="matrix(-0.7071 -0.7071 0.7071 -0.7071 150.7426 82.2521)" class="st0" width="3" height="3"/>
<rect x="88.4" y="5.9" transform="matrix(-0.7071 -0.7071 0.7071 -0.7071 148.2426 76.2166)" class="st0" width="3" height="3"/>
<rect x="95.9" y="8.4" transform="matrix(-0.7071 -0.7071 0.7071 -0.7071 159.2781 85.7876)" class="st0" width="3" height="3"/>
<rect x="98.4" y="5.9" transform="matrix(-0.7071 -0.7071 0.7071 -0.7071 165.3136 83.2876)" class="st0" width="3" height="3"/>
<rect x="93.4" y="5.9" transform="matrix(-0.7071 -0.7071 0.7071 -0.7071 156.7781 79.7521)" class="st0" width="3" height="3"/>
<rect x="118.4" y="50.9" transform="matrix(0.7071 0.7071 -0.7071 0.7071 72.1765 -69.4371)" class="st0" width="3" height="3"/>
<rect x="120.9" y="48.4" transform="matrix(0.7071 0.7071 -0.7071 0.7071 71.141 -71.9371)" class="st0" width="3" height="3"/>
<rect x="120.9" y="43.4" transform="matrix(0.7071 -0.7071 0.7071 0.7071 4.0984 99.707)" class="st0" width="3" height="3"/>
<rect x="115.9" y="48.4" transform="matrix(0.7071 0.7071 -0.7071 0.7071 69.6765 -68.4016)" class="st0" width="3" height="3"/>
<rect x="110.9" y="48.4" transform="matrix(0.7071 0.7071 -0.7071 0.7071 68.2121 -64.866)" class="st0" width="3" height="3"/>
<rect x="120.9" y="8.4" transform="matrix(0.7071 -0.7071 0.7071 0.7071 28.8472 89.4558)" class="st0" width="3" height="3"/>
<rect x="113.4" y="50.9" transform="matrix(0.7071 0.7071 -0.7071 0.7071 70.7121 -65.9016)" class="st0" width="3" height="3"/>
<rect x="120.9" y="13.4" transform="matrix(0.7071 -0.7071 0.7071 0.7071 25.3116 90.9202)" class="st0" width="3" height="3"/>
<rect x="120.9" y="18.4" transform="matrix(0.7071 -0.7071 0.7071 0.7071 21.7761 92.3847)" class="st0" width="3" height="3"/>
<rect x="120.9" y="23.4" transform="matrix(0.7071 -0.7071 0.7071 0.7071 18.2406 93.8492)" class="st0" width="3" height="3"/>
<rect x="120.9" y="33.4" transform="matrix(0.7071 -0.7071 0.7071 0.7071 11.1695 96.7781)" class="st0" width="3" height="3"/>
<rect x="120.9" y="28.4" transform="matrix(0.7071 -0.7071 0.7071 0.7071 14.705 95.3136)" class="st0" width="3" height="3"/>
<rect x="120.9" y="38.4" transform="matrix(0.7071 -0.7071 0.7071 0.7071 7.634 98.2426)" class="st0" width="3" height="3"/>
<rect x="53.4" y="5.9" transform="matrix(-0.7071 -0.7071 0.7071 -0.7071 88.4938 51.4678)" class="st0" width="3" height="3"/>
<rect x="50.9" y="8.4" transform="matrix(-0.7071 -0.7071 0.7071 -0.7071 82.4583 53.9678)" class="st0" width="3" height="3"/>
<rect x="55.9" y="8.4" transform="matrix(-0.7071 -0.7071 0.7071 -0.7071 90.9938 57.5034)" class="st0" width="3" height="3"/>
<rect x="58.4" y="5.9" transform="matrix(-0.7071 -0.7071 0.7071 -0.7071 97.0294 55.0034)" class="st0" width="3" height="3"/>
<rect x="60.9" y="8.4" transform="matrix(-0.7071 -0.7071 0.7071 -0.7071 99.5294 61.0389)" class="st0" width="3" height="3"/>
<rect x="48.4" y="5.9" transform="matrix(-0.7071 -0.7071 0.7071 -0.7071 79.9583 47.9323)" class="st0" width="3" height="3"/>
<rect x="5.9" y="18.4" transform="matrix(-0.7071 0.7071 -0.7071 -0.7071 26.7191 28.7451)" class="st0" width="3" height="3"/>
<rect x="40.9" y="8.4" transform="matrix(-0.7071 -0.7071 0.7071 -0.7071 65.3872 46.8968)" class="st0" width="3" height="3"/>
<rect x="35.9" y="8.4" transform="matrix(-0.7071 -0.7071 0.7071 -0.7071 56.8517 43.3612)" class="st0" width="3" height="3"/>
<rect x="33.4" y="5.9" transform="matrix(-0.7071 -0.7071 0.7071 -0.7071 54.3517 37.3257)" class="st0" width="3" height="3"/>
<rect x="45.9" y="8.4" transform="matrix(-0.7071 -0.7071 0.7071 -0.7071 73.9228 50.4323)" class="st0" width="3" height="3"/>
<rect x="43.4" y="5.9" transform="matrix(-0.7071 -0.7071 0.7071 -0.7071 71.4228 44.3968)" class="st0" width="3" height="3"/>
<rect x="78.4" y="5.9" transform="matrix(-0.7071 -0.7071 0.7071 -0.7071 131.1715 69.1455)" class="st0" width="3" height="3"/>
<rect x="85.9" y="8.4" transform="matrix(-0.7071 -0.7071 0.7071 -0.7071 142.207 78.7166)" class="st0" width="3" height="3"/>
<rect x="75.9" y="8.4" transform="matrix(-0.7071 -0.7071 0.7071 -0.7071 125.136 71.6455)" class="st0" width="3" height="3"/>
<rect x="28.4" y="5.9" transform="matrix(-0.7071 -0.7071 0.7071 -0.7071 45.8162 33.7902)" class="st0" width="3" height="3"/>
<rect x="83.4" y="5.9" transform="matrix(-0.7071 -0.7071 0.7071 -0.7071 139.707 72.681)" class="st0" width="3" height="3"/>
<rect x="80.9" y="8.4" transform="matrix(-0.7071 -0.7071 0.7071 -0.7071 133.6715 75.181)" class="st0" width="3" height="3"/>
<rect x="73.4" y="5.9" transform="matrix(-0.7071 -0.7071 0.7071 -0.7071 122.636 65.61)" class="st0" width="3" height="3"/>
<rect x="30.9" y="8.4" transform="matrix(-0.7071 -0.7071 0.7071 -0.7071 48.3162 39.8257)" class="st0" width="3" height="3"/>
<rect x="70.9" y="8.4" transform="matrix(-0.7071 -0.7071 0.7071 -0.7071 116.6004 68.11)" class="st0" width="3" height="3"/>
<rect x="63.4" y="5.9" transform="matrix(-0.7071 -0.7071 0.7071 -0.7071 105.5649 58.5389)" class="st0" width="3" height="3"/>
<rect x="65.9" y="8.4" transform="matrix(-0.7071 -0.7071 0.7071 -0.7071 108.0649 64.5744)" class="st0" width="3" height="3"/>
<rect x="68.4" y="5.9" transform="matrix(-0.7071 -0.7071 0.7071 -0.7071 114.1004 62.0744)" class="st0" width="3" height="3"/>
<rect x="28.4" y="50.9" transform="matrix(0.7071 0.7071 -0.7071 0.7071 45.8162 -5.7975)" class="st0" width="3" height="3"/>
<rect x="38.4" y="5.9" transform="matrix(-0.7071 -0.7071 0.7071 -0.7071 62.8872 40.8612)" class="st0" width="3" height="3"/>
<rect x="33.4" y="50.9" transform="matrix(0.7071 0.7071 -0.7071 0.7071 47.2806 -9.333)" class="st0" width="3" height="3"/>
<rect x="30.9" y="48.4" transform="matrix(0.7071 0.7071 -0.7071 0.7071 44.7806 -8.2975)" class="st0" width="3" height="3"/>
<rect x="25.9" y="48.4" transform="matrix(0.7071 0.7071 -0.7071 0.7071 43.3162 -4.7619)" class="st0" width="3" height="3"/>
<rect x="23.4" y="50.9" transform="matrix(0.7071 0.7071 -0.7071 0.7071 44.3517 -2.2619)" class="st0" width="3" height="3"/>
<rect x="43.4" y="50.9" transform="matrix(0.7071 0.7071 -0.7071 0.7071 50.2096 -16.4041)" class="st0" width="3" height="3"/>
<rect x="45.9" y="48.4" transform="matrix(0.7071 0.7071 -0.7071 0.7071 49.174 -18.9041)" class="st0" width="3" height="3"/>
<rect x="20.9" y="48.4" transform="matrix(0.7071 0.7071 -0.7071 0.7071 41.8517 -1.2264)" class="st0" width="3" height="3"/>
<rect x="35.9" y="48.4" transform="matrix(0.7071 0.7071 -0.7071 0.7071 46.2451 -11.833)" class="st0" width="3" height="3"/>
<rect x="38.4" y="50.9" transform="matrix(0.7071 0.7071 -0.7071 0.7071 48.7451 -12.8685)" class="st0" width="3" height="3"/>
<rect x="40.9" y="48.4" transform="matrix(0.7071 0.7071 -0.7071 0.7071 47.7096 -15.3685)" class="st0" width="3" height="3"/>
<rect x="18.4" y="50.9" transform="matrix(0.7071 0.7071 -0.7071 0.7071 42.8872 1.2736)" class="st0" width="3" height="3"/>
<rect x="48.4" y="50.9" transform="matrix(0.7071 0.7071 -0.7071 0.7071 51.674 -19.9396)" class="st0" width="3" height="3"/>
<rect x="5.9" y="33.4" transform="matrix(-0.7071 0.7071 -0.7071 -0.7071 37.3257 54.3517)" class="st0" width="3" height="3"/>
<rect x="5.9" y="38.4" transform="matrix(-0.7071 0.7071 -0.7071 -0.7071 40.8612 62.8872)" class="st0" width="3" height="3"/>
<rect x="5.9" y="28.4" transform="matrix(-0.7071 0.7071 -0.7071 -0.7071 33.7902 45.8162)" class="st0" width="3" height="3"/>
<rect x="5.9" y="23.4" transform="matrix(-0.7071 0.7071 -0.7071 -0.7071 30.2546 37.2806)" class="st0" width="3" height="3"/>
<rect x="5.9" y="43.4" transform="matrix(-0.7071 0.7071 -0.7071 -0.7071 44.3968 71.4228)" class="st0" width="3" height="3"/>
<rect x="5.9" y="48.4" transform="matrix(-0.7071 0.7071 -0.7071 -0.7071 47.9323 79.9583)" class="st0" width="3" height="3"/>
<rect x="13.4" y="50.9" transform="matrix(0.7071 0.7071 -0.7071 0.7071 41.4228 4.8091)" class="st0" width="3" height="3"/>
<rect x="15.9" y="48.4" transform="matrix(0.7071 0.7071 -0.7071 0.7071 40.3872 2.3091)" class="st0" width="3" height="3"/>
<rect x="8.4" y="50.9" transform="matrix(0.7071 0.7071 -0.7071 0.7071 39.9583 8.3447)" class="st0" width="3" height="3"/>
<rect x="10.9" y="48.4" transform="matrix(0.7071 0.7071 -0.7071 0.7071 38.9228 5.8447)" class="st0" width="3" height="3"/>
<rect x="83.4" y="50.9" transform="matrix(0.7071 0.7071 -0.7071 0.7071 61.9253 -44.6884)" class="st0" width="3" height="3"/>
<rect x="93.4" y="50.9" transform="matrix(0.7071 0.7071 -0.7071 0.7071 64.8542 -51.7594)" class="st0" width="3" height="3"/>
<rect x="90.9" y="48.4" transform="matrix(0.7071 0.7071 -0.7071 0.7071 62.3542 -50.7239)" class="st0" width="3" height="3"/>
<rect x="85.9" y="48.4" transform="matrix(0.7071 0.7071 -0.7071 0.7071 60.8897 -47.1884)" class="st0" width="3" height="3"/>
<rect x="88.4" y="50.9" transform="matrix(0.7071 0.7071 -0.7071 0.7071 63.3897 -48.2239)" class="st0" width="3" height="3"/>
<rect x="80.9" y="48.4" transform="matrix(0.7071 0.7071 -0.7071 0.7071 59.4253 -43.6528)" class="st0" width="3" height="3"/>
<rect x="108.4" y="50.9" transform="matrix(0.7071 0.7071 -0.7071 0.7071 69.2476 -62.366)" class="st0" width="3" height="3"/>
<rect x="105.9" y="48.4" transform="matrix(0.7071 0.7071 -0.7071 0.7071 66.7476 -61.3305)" class="st0" width="3" height="3"/>
<rect x="103.4" y="50.9" transform="matrix(0.7071 0.7071 -0.7071 0.7071 67.7831 -58.8305)" class="st0" width="3" height="3"/>
<rect x="78.4" y="50.9" transform="matrix(0.7071 0.7071 -0.7071 0.7071 60.4608 -41.1528)" class="st0" width="3" height="3"/>
<rect x="100.9" y="48.4" transform="matrix(0.7071 0.7071 -0.7071 0.7071 65.2831 -57.795)" class="st0" width="3" height="3"/>
<rect x="98.4" y="50.9" transform="matrix(0.7071 0.7071 -0.7071 0.7071 66.3187 -55.295)" class="st0" width="3" height="3"/>
<rect x="95.9" y="48.4" transform="matrix(0.7071 0.7071 -0.7071 0.7071 63.8187 -54.2594)" class="st0" width="3" height="3"/>
<rect x="63.4" y="50.9" transform="matrix(0.7071 0.7071 -0.7071 0.7071 56.0674 -30.5462)" class="st0" width="3" height="3"/>
<rect x="68.4" y="50.9" transform="matrix(0.7071 0.7071 -0.7071 0.7071 57.5319 -34.0817)" class="st0" width="3" height="3"/>
<rect x="58.4" y="50.9" transform="matrix(0.7071 0.7071 -0.7071 0.7071 54.6029 -27.0107)" class="st0" width="3" height="3"/>
<rect x="60.9" y="48.4" transform="matrix(0.7071 0.7071 -0.7071 0.7071 53.5674 -29.5107)" class="st0" width="3" height="3"/>
<rect x="50.9" y="48.4" transform="matrix(0.7071 0.7071 -0.7071 0.7071 50.6385 -22.4396)" class="st0" width="3" height="3"/>
<rect x="65.9" y="48.4" transform="matrix(0.7071 0.7071 -0.7071 0.7071 55.0319 -33.0462)" class="st0" width="3" height="3"/>
<rect x="75.9" y="48.4" transform="matrix(0.7071 0.7071 -0.7071 0.7071 57.9608 -40.1173)" class="st0" width="3" height="3"/>
<rect x="55.9" y="48.4" transform="matrix(0.7071 0.7071 -0.7071 0.7071 52.1029 -25.9751)" class="st0" width="3" height="3"/>
<rect x="70.9" y="48.4" transform="matrix(0.7071 0.7071 -0.7071 0.7071 56.4963 -36.5817)" class="st0" width="3" height="3"/>
<rect x="53.4" y="50.9" transform="matrix(0.7071 0.7071 -0.7071 0.7071 53.1385 -23.4751)" class="st0" width="3" height="3"/>
<rect x="73.4" y="50.9" transform="matrix(0.7071 0.7071 -0.7071 0.7071 58.9963 -37.6173)" class="st0" width="3" height="3"/>
</svg>
