<?xml version="1.0" encoding="utf-8"?>
<!-- Generator: Adobe Illustrator 19.1.0, SVG Export Plug-In . SVG Version: 6.00 Build 0)  -->
<!DOCTYPE svg PUBLIC "-//W3C//DTD SVG 1.1//EN" "http://www.w3.org/Graphics/SVG/1.1/DTD/svg11.dtd">
<svg version="1.1" id="Layer_1" xmlns="http://www.w3.org/2000/svg" xmlns:xlink="http://www.w3.org/1999/xlink" x="0px" y="0px"
	 viewBox="0 30 130 5" style="enable-background:new 0 30 130 5;" xml:space="preserve">
<style type="text/css">
	.st0{fill:#312F32;}
</style>
<polygon class="st0" points="9.5,30 5.4,30 7.4,32.1 "/>
<rect x="123.4" y="30.9" transform="matrix(-0.7071 0.7071 -0.7071 -0.7071 236.1348 -33.0172)" class="st0" width="3" height="3"/>
<polygon class="st0" points="129.9,34.6 130,34.5 130,30.4 129.9,30.3 127.8,32.4 "/>
<polygon class="st0" points="69.5,30 65.4,30 67.4,32.1 "/>
<polygon class="st0" points="39.5,30 35.4,30 37.4,32.1 "/>
<polygon class="st0" points="84.5,30 80.4,30 82.4,32.1 "/>
<polygon class="st0" points="79.5,30 75.4,30 77.4,32.1 "/>
<polygon class="st0" points="64.5,30 60.4,30 62.4,32.1 "/>
<polygon class="st0" points="49.5,30 45.4,30 47.4,32.1 "/>
<polygon class="st0" points="44.5,30 40.4,30 42.4,32.1 "/>
<polygon class="st0" points="59.5,30 55.4,30 57.4,32.1 "/>
<polygon class="st0" points="54.5,30 50.4,30 52.4,32.1 "/>
<polygon class="st0" points="74.5,30 70.4,30 72.4,32.1 "/>
<polygon class="st0" points="119.5,30 115.4,30 117.4,32.1 "/>
<polygon class="st0" points="124.5,30 120.4,30 122.4,32.1 "/>
<polygon class="st0" points="89.5,30 85.4,30 87.4,32.1 "/>
<polygon class="st0" points="114.5,30 110.4,30 112.4,32.1 "/>
<polygon class="st0" points="94.5,30 90.4,30 92.4,32.1 "/>
<polygon class="st0" points="109.5,30 105.4,30 107.4,32.1 "/>
<polygon class="st0" points="99.5,30 95.4,30 97.4,32.1 "/>
<polygon class="st0" points="104.5,30 100.4,30 102.4,32.1 "/>
<polygon class="st0" points="129.5,30 125.4,30 127.4,32.1 "/>
<polygon class="st0" points="34.5,30 30.4,30 32.4,32.1 "/>
<polygon class="st0" points="14.5,30 10.4,30 12.4,32.1 "/>
<polygon class="st0" points="29.5,30 25.4,30 27.4,32.1 "/>
<polygon class="st0" points="19.5,30 15.4,30 17.4,32.1 "/>
<polygon class="st0" points="0,30.4 0,34.5 2.1,32.4 "/>
<polygon class="st0" points="4.5,30 0.4,30 2.4,32.1 "/>
<polygon class="st0" points="24.5,30 20.4,30 22.4,32.1 "/>
<polygon class="st0" points="89.5,34.9 87.4,32.8 85.3,34.9 85.4,35 89.4,35 "/>
<polygon class="st0" points="99.5,34.9 97.4,32.8 95.3,34.9 95.4,35 99.4,35 "/>
<rect x="83.4" y="30.9" transform="matrix(-0.7071 0.7071 -0.7071 -0.7071 167.8515 -4.7313)" class="st0" width="3" height="3"/>
<polygon class="st0" points="94.5,34.9 92.4,32.8 90.3,34.9 90.4,35 94.4,35 "/>
<polygon class="st0" points="84.5,34.9 82.4,32.8 80.3,34.9 80.4,35 84.4,35 "/>
<rect x="93.4" y="30.9" transform="matrix(-0.7071 0.7071 -0.7071 -0.7071 184.9226 -11.8025)" class="st0" width="3" height="3"/>
<rect x="88.4" y="30.9" transform="matrix(-0.7071 0.7071 -0.7071 -0.7071 176.3871 -8.2668)" class="st0" width="3" height="3"/>
<polygon class="st0" points="74.5,34.9 72.4,32.8 70.3,34.9 70.4,35 74.4,35 "/>
<rect x="68.4" y="30.9" transform="matrix(-0.7071 0.7071 -0.7071 -0.7071 142.2443 5.8732)" class="st0" width="3" height="3"/>
<rect x="73.4" y="30.9" transform="matrix(-0.7071 0.7071 -0.7071 -0.7071 150.7798 2.3376)" class="st0" width="3" height="3"/>
<rect x="78.4" y="30.9" transform="matrix(-0.7071 0.7071 -0.7071 -0.7071 159.3157 -1.1971)" class="st0" width="3" height="3"/>
<polygon class="st0" points="79.5,34.9 77.4,32.8 75.3,34.9 75.4,35 79.4,35 "/>
<polygon class="st0" points="109.5,34.9 107.4,32.8 105.3,34.9 105.4,35 109.4,35 "/>
<polygon class="st0" points="119.5,34.9 117.4,32.8 115.3,34.9 115.4,35 119.4,35 "/>
<rect x="113.4" y="30.9" transform="matrix(-0.7071 0.7071 -0.7071 -0.7071 219.0629 -25.9474)" class="st0" width="3" height="3"/>
<rect x="118.4" y="30.9" transform="matrix(-0.7071 0.7071 -0.7071 -0.7071 227.5984 -29.483)" class="st0" width="3" height="3"/>
<polygon class="st0" points="124.5,34.9 122.4,32.8 120.3,34.9 120.4,35 124.4,35 "/>
<polygon class="st0" points="69.5,34.9 67.4,32.8 65.3,34.9 65.4,35 69.4,35 "/>
<rect x="98.4" y="30.9" transform="matrix(-0.7071 0.7071 -0.7071 -0.7071 193.4574 -15.3392)" class="st0" width="3" height="3"/>
<polygon class="st0" points="104.5,34.9 102.4,32.8 100.3,34.9 100.4,35 104.4,35 "/>
<polygon class="st0" points="114.5,34.9 112.4,32.8 110.3,34.9 110.4,35 114.4,35 "/>
<rect x="108.4" y="30.9" transform="matrix(-0.7071 0.7071 -0.7071 -0.7071 210.5283 -22.4104)" class="st0" width="3" height="3"/>
<rect x="103.4" y="30.9" transform="matrix(-0.7071 0.7071 -0.7071 -0.7071 201.9936 -18.8733)" class="st0" width="3" height="3"/>
<polygon class="st0" points="129.5,34.9 127.4,32.8 125.3,34.9 125.4,35 129.4,35 "/>
<polygon class="st0" points="19.5,34.9 17.4,32.8 15.3,34.9 15.4,35 19.4,35 "/>
<polygon class="st0" points="34.5,34.9 32.4,32.8 30.3,34.9 30.4,35 34.4,35 "/>
<rect x="18.4" y="30.9" transform="matrix(-0.7071 0.7071 -0.7071 -0.7071 56.8902 41.2298)" class="st0" width="3" height="3"/>
<rect x="23.4" y="30.9" transform="matrix(-0.7071 0.7071 -0.7071 -0.7071 65.4257 37.6937)" class="st0" width="3" height="3"/>
<rect x="28.4" y="30.9" transform="matrix(-0.7071 0.7071 -0.7071 -0.7071 73.9612 34.1581)" class="st0" width="3" height="3"/>
<polygon class="st0" points="29.5,34.9 27.4,32.8 25.3,34.9 25.4,35 29.4,35 "/>
<polygon class="st0" points="24.5,34.9 22.4,32.8 20.3,34.9 20.4,35 24.4,35 "/>
<rect x="3.4" y="30.9" transform="matrix(-0.7071 0.7071 -0.7071 -0.7071 31.2838 51.8364)" class="st0" width="3" height="3"/>
<polygon class="st0" points="9.5,34.9 7.4,32.8 5.3,34.9 5.4,35 9.4,35 "/>
<rect x="8.4" y="30.9" transform="matrix(-0.7071 0.7071 -0.7071 -0.7071 39.8189 48.3014)" class="st0" width="3" height="3"/>
<rect x="13.4" y="30.9" transform="matrix(-0.7071 0.7071 -0.7071 -0.7071 48.3545 44.7659)" class="st0" width="3" height="3"/>
<polygon class="st0" points="14.5,34.9 12.4,32.8 10.3,34.9 10.4,35 14.4,35 "/>
<polygon class="st0" points="39.5,34.9 37.4,32.8 35.3,34.9 35.4,35 39.4,35 "/>
<polygon class="st0" points="59.5,34.9 57.4,32.8 55.3,34.9 55.4,35 59.4,35 "/>
<rect x="53.4" y="30.9" transform="matrix(-0.7071 0.7071 -0.7071 -0.7071 116.6385 16.4818)" class="st0" width="3" height="3"/>
<rect x="58.4" y="30.9" transform="matrix(-0.7071 0.7071 -0.7071 -0.7071 125.1741 12.9463)" class="st0" width="3" height="3"/>
<polygon class="st0" points="54.5,34.9 52.4,32.8 50.3,34.9 50.4,35 54.4,35 "/>
<polygon class="st0" points="64.5,34.9 62.4,32.8 60.3,34.9 60.4,35 64.4,35 "/>
<polygon class="st0" points="49.5,34.9 47.4,32.8 45.3,34.9 45.4,35 49.4,35 "/>
<polygon class="st0" points="4.5,34.9 2.4,32.8 0.3,34.9 0.4,35 4.4,35 "/>
<rect x="38.4" y="30.9" transform="matrix(-0.7071 0.7071 -0.7071 -0.7071 91.0319 27.0876)" class="st0" width="3" height="3"/>
<rect x="33.4" y="30.9" transform="matrix(-0.7071 0.7071 -0.7071 -0.7071 82.4966 30.623)" class="st0" width="3" height="3"/>
<polygon class="st0" points="44.5,34.9 42.4,32.8 40.3,34.9 40.4,35 44.4,35 "/>
<rect x="48.4" y="30.9" transform="matrix(-0.7071 0.7071 -0.7071 -0.7071 108.1029 20.0164)" class="st0" width="3" height="3"/>
<rect x="63.4" y="30.9" transform="matrix(-0.7071 0.7071 -0.7071 -0.7071 133.7093 9.4097)" class="st0" width="3" height="3"/>
<rect x="43.4" y="30.9" transform="matrix(-0.7071 0.7071 -0.7071 -0.7071 99.5675 23.5521)" class="st0" width="3" height="3"/>
</svg>
