<?xml version="1.0" encoding="utf-8"?>
<!-- Generator: Adobe Illustrator 19.1.0, SVG Export Plug-In . SVG Version: 6.00 Build 0)  -->
<!DOCTYPE svg PUBLIC "-//W3C//DTD SVG 1.1//EN" "http://www.w3.org/Graphics/SVG/1.1/DTD/svg11.dtd">
<svg version="1.1" id="Layer_1" xmlns="http://www.w3.org/2000/svg" xmlns:xlink="http://www.w3.org/1999/xlink" x="0px" y="0px"
	 viewBox="0 0 1515 1000" style="enable-background:new 0 0 1515 1000;" xml:space="preserve">
<style type="text/css">
	.st0{fill:#53C162;}
	.st1{fill:#ECDC6D;}
	.st2{fill:#4457A6;}
	.st3{fill:#FFFFFF;}
</style>
<path class="st0" d="M1372.1,1000H142.9C64,1000,0,936,0,857.1l0-714.3C0,64,64,0,142.9,0l1229.3,0C1451,0,1515,64,1515,142.9v714.3
	C1515,936,1451,1000,1372.1,1000z M1328.9,500.6l-572-421.1L186.1,499.4l572,421.1L1328.9,500.6z"/>
<path class="st1" d="M758.1,920.5l-572-421.1L756.9,79.5l572,421.1L758.1,920.5z M757.5,197.3C590.4,197.3,455,332.8,455,499.8
	s135.4,302.5,302.5,302.5S1060,666.9,1060,499.8S924.6,197.3,757.5,197.3z"/>
<path class="st2" d="M889.9,447.5c-63.3-49-141.6-73.8-232.6-73.8c-59.5,0-122.6,10.8-187.3,31.6c-9.8,29.7-15.1,61.5-15.1,94.5
	c0,167.1,135.4,302.5,302.5,302.5c111.2,0,208.3-60,260.9-149.3c-2.7-10.3-5.6-20.4-8.9-30.3C984.9,548.8,944.6,489.8,889.9,447.5z"
	/>
<path class="st2" d="M910.6,420.7c59.1,45.7,102.6,108.6,129.5,187.1c12.8-33.5,19.8-69.9,19.8-107.9
	c0-167.1-135.4-302.5-302.5-302.5c-118.6,0-221.3,68.3-270.8,167.7c58.7-16.6,116.1-25.2,170.7-25.2
	C756,339.8,841.3,367,910.6,420.7z"/>
<path class="st3" d="M910.6,420.7C841.3,367,756,339.8,657.4,339.8c-54.6,0-112,8.6-170.7,25.2c-6.5,12.9-12,26.4-16.6,40.3
	c64.7-20.9,127.8-31.6,187.3-31.6c91,0,169.2,24.9,232.6,73.8c54.7,42.3,94.9,101.3,119.5,175.2c3.3,9.9,6.2,20,8.9,30.3
	c8.5-14.4,15.7-29.5,21.8-45.2C1013.3,529.3,969.7,466.4,910.6,420.7z"/>
</svg>
