<?xml version="1.0" encoding="utf-8"?>
<!-- Generator: Adobe Illustrator 22.0.1, SVG Export Plug-In . SVG Version: 6.00 Build 0)  -->
<svg version="1.1" id="Layer_1" xmlns:sketch="http://www.bohemiancoding.com/sketch/ns"
	 xmlns="http://www.w3.org/2000/svg" xmlns:xlink="http://www.w3.org/1999/xlink" x="0px" y="0px" viewBox="0 0 794 100"
	 style="enable-background:new 0 0 794 100;" xml:space="preserve">
<style type="text/css">
	.st0{fill:#FFFFFF;}
</style>
<g>
	<path class="st0" d="M2.5,48.6c0-8.5,2.3-15.2,6.9-20c4.6-4.8,10.8-7.2,18.7-7.2c4.4,0,8.4,0.9,12,2.6c3.6,1.8,6.4,4.2,8.5,7.4
		c2.1,3.2,3.2,6.8,3.3,10.9H39c-0.3-3.1-1.5-5.5-3.5-7.4s-4.5-2.8-7.4-2.8c-3.7,0-6.6,1.5-8.7,4.4c-2.1,2.9-3.2,6.9-3.2,12
		c0,5.1,1.1,9.2,3.2,12.1c2.1,2.9,5.1,4.4,8.8,4.4c2.9,0,5.4-0.9,7.4-2.7c2-1.8,3.2-4.2,3.6-7.3H52c-0.3,6.2-2.7,11.2-7.1,15.1
		c-4.4,3.8-10,5.7-16.8,5.7c-7.9,0-14.2-2.4-18.7-7.2C4.8,63.8,2.5,57.1,2.5,48.6z"/>
	<path class="st0" d="M63.8,68.5c-4.7-4.9-7-11.5-7-19.9s2.3-15.1,7-20c4.7-4.9,11-7.3,19-7.3c8,0,14.3,2.4,19,7.3
		c4.7,4.9,7,11.5,7,20s-2.3,15.1-7,19.9c-4.7,4.9-11,7.3-19,7.3C74.8,75.8,68.5,73.4,63.8,68.5z M70.5,48.6c0,5,1.1,9,3.4,12
		c2.2,3,5.2,4.5,9,4.5c3.7,0,6.7-1.5,9-4.5c2.2-3,3.4-7,3.4-12c0-5-1.1-9-3.4-12c-2.3-3-5.2-4.5-9-4.5c-3.7,0-6.7,1.5-9,4.5
		C71.6,39.6,70.5,43.6,70.5,48.6z"/>
	<path class="st0" d="M115.4,74.9V22.2h15.5l13.3,33.8h0.3l13.3-33.8h15.5v52.7h-11.8V42h-0.3l-13,32.3h-7.7l-13-32.3h-0.3v32.9
		H115.4z"/>
	<path class="st0" d="M181.1,74.9V22.2h23.2c5.7,0,10.3,1.7,13.8,5.1c3.5,3.4,5.2,7.9,5.2,13.5c0,5.7-1.8,10.2-5.5,13.6
		c-3.7,3.4-8.5,5.1-14.4,5.1h-8.9v15.3H181.1z M194.5,49.4h6.1c2.9,0,5.1-0.7,6.7-2.2c1.6-1.5,2.4-3.6,2.4-6.3
		c0-2.7-0.8-4.8-2.4-6.3c-1.6-1.4-3.8-2.2-6.6-2.2h-6.1V49.4z"/>
	<path class="st0" d="M220.8,74.9l17.7-52.7h16.4l17.7,52.7h-14.2L255,63.4h-17.2l-3.4,11.5H220.8z M240.4,53.7h12l-5.8-20.3h-0.3
		L240.4,53.7z"/>
	<path class="st0" d="M277.6,74.9V22.2h10.7l22.3,30.6h0.3V22.2h12.7v52.7h-10.6L290.6,44h-0.3v30.9H277.6z"/>
	<path class="st0" d="M328.7,22.2h14.4l10.5,21.9h0.3l10.4-21.9h14.1l-18.1,34.6v18.1h-13.4V56.8L328.7,22.2z"/>
	<path class="st0" d="M403.8,68.5c-4.3-4.9-6.4-11.5-6.4-19.9s2.2-15,6.5-19.9s10.1-7.3,17.4-7.3c7.3,0,13.2,2.4,17.5,7.3
		s6.5,11.5,6.5,19.9s-2.2,15-6.5,19.9s-10.1,7.3-17.5,7.3S408.1,73.3,403.8,68.5z M407.5,32.1c-3.4,4.1-5.1,9.6-5.1,16.5
		c0,6.9,1.7,12.5,5.1,16.5s8,6.1,13.7,6.1c5.8,0,10.3-2,13.7-6.1c3.4-4.1,5.1-9.6,5.1-16.5c0-6.9-1.7-12.5-5.1-16.5
		c-3.4-4.1-8-6.1-13.7-6.1C415.5,25.9,410.9,28,407.5,32.1z"/>
	<path class="st0" d="M452.9,74.9V22.2h18.8c5.1,0,9.2,1.4,12.3,4.2c3,2.8,4.6,6.5,4.6,11.2c0,3.7-1,6.9-3,9.6
		c-2,2.7-4.7,4.4-8.3,5.3L490,74.9h-5.8l-12.1-21.5h-0.8h-13.5v21.5H452.9z M457.9,48.9h13.5c3.8,0,6.8-1,8.9-2.9
		c2.1-1.9,3.2-4.7,3.2-8.2c0-3.5-1.1-6.2-3.3-8.1c-2.2-2-5.2-2.9-9-2.9h-13.3V48.9z"/>
	<path class="st0" d="M494.5,48.3c0-8.2,2.2-14.7,6.5-19.5s10.1-7.3,17.4-7.3c5.5,0,10.1,1.5,14,4.6c3.9,3,6.3,7.1,7.3,12.1h-4.8
		c-1.1-3.8-3.1-6.8-6-8.9c-2.9-2.2-6.4-3.2-10.5-3.2c-5.8,0-10.4,2-13.7,6s-5,9.4-5,16.3c0,7,1.7,12.6,5.1,16.7
		c3.4,4.2,7.9,6.2,13.7,6.2c5,0,9.1-1.5,12.1-4.5s4.6-7,4.6-12.1v-1.9h-16.4v-4.3h21.3v5.1c0,7-1.9,12.4-5.7,16.3
		c-3.8,3.9-9.1,5.9-15.9,5.9c-7.2,0-13-2.5-17.3-7.5C496.7,63.2,494.5,56.6,494.5,48.3z"/>
	<path class="st0" d="M562.5,48.4c0-8.2,2.1-14.8,6.4-19.7c4.2-4.9,9.9-7.3,17.1-7.3c3.7,0,7,0.7,10.1,2.2c3.1,1.5,5.6,3.6,7.6,6.2
		c2,2.7,3.2,5.7,3.6,9.1h-5c-0.7-3.8-2.6-7-5.7-9.4c-3-2.4-6.6-3.6-10.7-3.6c-5.6,0-10.1,2-13.4,6.1c-3.3,4.1-5,9.5-5,16.4
		c0,7,1.7,12.5,5,16.6c3.3,4.1,7.8,6.2,13.4,6.2c4.2,0,7.8-1.1,10.7-3.2c2.9-2.1,4.8-5,5.6-8.7h5c-0.9,5.1-3.3,9.2-7.1,12.1
		c-3.8,2.9-8.5,4.4-14.2,4.4c-7.2,0-12.9-2.5-17.1-7.4S562.5,56.8,562.5,48.4z"/>
	<path class="st0" d="M614.7,74.9V22.2h5v23.4h30.8V22.2h5v52.7h-5V50.2h-30.8v24.7H614.7z"/>
	<path class="st0" d="M661.2,74.9l19.7-52.7h5l19.7,52.7h-5.3l-5.8-16.1h-22.1l-5.8,16.1H661.2z M673.8,54.5H693l-9.5-26.1h-0.2
		L673.8,54.5z"/>
	<path class="st0" d="M711.4,74.9V22.2h18.8c5.1,0,9.2,1.4,12.3,4.2c3,2.8,4.6,6.5,4.6,11.2c0,3.7-1,6.9-3,9.6
		c-2,2.7-4.7,4.4-8.3,5.3l12.7,22.3h-5.8l-12.1-21.5h-0.8h-13.5v21.5H711.4z M716.3,48.9h13.5c3.8,0,6.8-1,8.9-2.9
		c2.1-1.9,3.2-4.7,3.2-8.2c0-3.5-1.1-6.2-3.3-8.1c-2.2-2-5.2-2.9-9-2.9h-13.3V48.9z"/>
	<path class="st0" d="M751.3,26.8v-4.5h40.3v4.5H774v48.1h-5V26.8H751.3z"/>
</g>
</svg>
