<?xml version="1.0" encoding="utf-8"?>
<!-- Generator: Adobe Illustrator 19.1.0, SVG Export Plug-In . SVG Version: 6.00 Build 0)  -->
<!DOCTYPE svg PUBLIC "-//W3C//DTD SVG 1.1//EN" "http://www.w3.org/Graphics/SVG/1.1/DTD/svg11.dtd">
<svg version="1.1" id="Layer_1" xmlns="http://www.w3.org/2000/svg" xmlns:xlink="http://www.w3.org/1999/xlink" x="0px" y="0px"
	 viewBox="0 0 1515 1000" style="enable-background:new 0 0 1515 1000;" xml:space="preserve">
<style type="text/css">
	.st0{fill:#0000AA;}
	.st1{fill:#FFFFFF;}
	.st2{fill:#FE0000;}
</style>
<g>
	<polygon class="st0" points="1152.9,365 1515,365 1515,145 1514.6,145 	"/>
	<polygon class="st0" points="1514.6,855 1515,855 1515,635 1152.9,635 	"/>
	<polygon class="st0" points="0,145 0,365 361.7,365 	"/>
	<polygon class="st0" points="0,635 0,855 361.7,635 	"/>
	<path class="st0" d="M892,1000h480.1c22,0,42.9-5,61.5-13.9L892,677V1000z"/>
	<path class="st0" d="M623,0H142.9c-22,0-42.9,5-61.5,13.9L623,323V0z"/>
	<path class="st0" d="M1433.7,13.9C1415,5,1394.2,0,1372.1,0H892v323L1433.7,13.9z"/>
	<path class="st0" d="M81.3,986.1c18.6,8.9,39.5,13.9,61.5,13.9H623V677L81.3,986.1z"/>
</g>
<g>
	<path class="st1" d="M1514.6,855l-361.7-220H1515v-56h-0.5H834v421h58V677l541.7,309.1c13.7-6.5,26.2-15.2,37-25.5L913.1,635h117
		l474,276.8c7-16.8,10.8-35.3,10.8-54.7V855H1514.6z"/>
	<path class="st1" d="M834,423h680.5h0.5v-58h-362.1l361.7-220h0.4v-2.1c0-13.2-1.8-25.9-5.1-38.1L1064.2,365h-117l535.5-312.7
		c-13.2-16.2-30-29.4-49-38.5L892,323V0h-58v0.5V423z"/>
	<path class="st1" d="M679,579H0v54v2h361.7L0,855v2.1c0,19.3,3.9,37.8,10.8,54.6l474-276.7h117.1L44.3,960.6
		c10.9,10.4,23.4,19,37,25.6L623,677v323h56V579z"/>
	<path class="st1" d="M679,423V0.5V0h-56v323L81.3,13.9c-19,9.1-35.8,22.3-49,38.5L567.8,365h-117L5.1,104.8
		C1.8,116.9,0,129.7,0,142.9v2.1l361.7,220H0v2v56H679z"/>
</g>
<g>
	<path class="st2" d="M1064.2,365l445.6-260.2c-5.4-19.5-14.7-37.3-27.2-52.4L947.2,365H1064.2z"/>
	<path class="st2" d="M484.8,635l-474,276.7c7.7,18.6,19.2,35.2,33.5,48.8L601.8,635H484.8z"/>
	<path class="st2" d="M567.8,365L32.3,52.3c-12.4,15.2-21.8,33-27.2,52.4L450.7,365H567.8z"/>
	<path class="st2" d="M913.1,635l557.6,325.6c14.3-13.6,25.8-30.2,33.5-48.8l-474-276.8H913.1z"/>
	<polygon class="st2" points="834,579 1514.5,579 1515,579 1515,423 1514.5,423 834,423 834,0.5 834,0 679,0 679,0.5 679,423 0,423 
		0,579 679,579 679,1000 834,1000 	"/>
</g>
</svg>
