<?xml version="1.0" encoding="utf-8"?>
<!-- Generator: Adobe Illustrator 19.1.0, SVG Export Plug-In . SVG Version: 6.00 Build 0)  -->
<!DOCTYPE svg PUBLIC "-//W3C//DTD SVG 1.1//EN" "http://www.w3.org/Graphics/SVG/1.1/DTD/svg11.dtd">
<svg version="1.1" id="Layer_1" xmlns="http://www.w3.org/2000/svg" xmlns:xlink="http://www.w3.org/1999/xlink" x="0px" y="0px"
	 viewBox="0 0 1515 1000" style="enable-background:new 0 0 1515 1000;" xml:space="preserve">
<style type="text/css">
	.st0{fill:#FFFFFF;}
	.st1{fill:#BE0027;}
	.st2{fill:#3B5AA3;}
</style>
<g>
	<path class="st0" d="M1515,857.1V846H0v11.1C0,880.9,6.3,903,16.6,923h1482.8C1509.7,903,1515,880.9,1515,857.1z"/>
	<rect y="692" class="st0" width="1515" height="77"/>
	<polygon class="st0" points="1515,538 732.1,538 0,538 0,615 1515,615 	"/>
	<rect x="732" y="385" class="st0" width="783" height="77"/>
	<rect x="732" y="231" class="st0" width="783" height="77"/>
	<path class="st0" d="M732,154h783v-11.1c0-23.8-5.3-45.9-15.6-65.9H732V154z"/>
</g>
<g>
	<path class="st1" d="M1499.4,77c-23.8-46-71.6-77-126.8-77H732v77H1499.4z"/>
	<rect x="732" y="154" class="st1" width="783" height="77"/>
	<rect x="732" y="308" class="st1" width="783" height="77"/>
	<rect x="732" y="462" class="st1" width="783" height="76"/>
	<rect y="615" class="st1" width="1515" height="77"/>
	<rect y="769" class="st1" width="1515" height="77"/>
	<path class="st1" d="M16.6,923c23.8,46,71.6,77,126.8,77h1229.3c55.1,0,102.9-31,126.8-77H16.6z"/>
</g>
<path class="st2" d="M732,461.5v-76.9v-76.9v-76.9v-76.9V76.9V0H143.4C64.5,0,0,64,0,142.9V538h732V461.5z M634.2,479L594,458.1
	L553.8,479l7.7-44.3L529,403.3l44.9-6.5l20.1-40.3l20.1,40.3l44.9,6.5l-32.5,31.4L634.2,479z M406.4,479l-40.2-20.9L326,479
	l7.7-44.3l-32.5-31.4l44.9-6.5l20.1-40.3l20.1,40.3l44.9,6.5l-32.5,31.4L406.4,479z M447.6,285.9l-32.5-31.4l44.9-6.5l20.1-40.3
	l20.1,40.3l44.9,6.5l-32.5,31.4l7.7,44.3l-40.2-20.9l-40.2,20.9L447.6,285.9z M614.1,99.3l44.9,6.5l-32.5,31.4l7.7,44.3L594,160.5
	l-40.2,20.9l7.7-44.3L529,105.8l44.9-6.5L594,59L614.1,99.3z M386.3,99.3l44.9,6.5l-32.5,31.4l7.7,44.3l-40.2-20.9L326,181.4
	l7.7-44.3l-32.5-31.4l44.9-6.5L366.2,59L386.3,99.3z M73.4,105.8l44.9-6.5L138.5,59l20.1,40.3l44.9,6.5l-32.5,31.4l7.7,44.3
	l-40.2-20.9l-40.2,20.9l7.7-44.3L73.4,105.8z M187.3,254.5l44.9-6.5l20.1-40.3l20.1,40.3l44.9,6.5l-32.5,31.4l7.7,44.3l-40.2-20.9
	l-40.2,20.9l7.7-44.3L187.3,254.5z M138.5,356.6l20.1,40.3l44.9,6.5l-32.5,31.4l7.7,44.3l-40.2-20.9L98.3,479l7.7-44.3l-32.5-31.4
	l44.9-6.5L138.5,356.6z"/>
<g>
	<polygon class="st0" points="431.2,403.4 386.3,396.9 366.2,356.6 346.1,396.9 301.2,403.3 333.7,434.7 326,479 366.2,458.1 
		406.4,479 398.7,434.7 	"/>
	<polygon class="st0" points="346.1,99.3 301.2,105.8 333.7,137.1 326,181.4 366.2,160.5 406.4,181.4 398.7,137.1 431.2,105.8 
		386.3,99.3 366.2,59 	"/>
	<polygon class="st0" points="73.4,403.3 105.9,434.7 98.3,479 138.4,458.1 178.6,479 170.9,434.7 203.4,403.3 158.5,396.9 
		138.5,356.6 118.4,396.9 	"/>
	<polygon class="st0" points="573.9,99.3 529,105.8 561.5,137.1 553.8,181.4 594,160.5 634.2,181.4 626.5,137.1 659,105.8 
		614.1,99.3 594,59 	"/>
	<polygon class="st0" points="626.5,434.7 659,403.3 614.1,396.9 594,356.6 573.9,396.9 529,403.3 561.5,434.7 553.8,479 594,458.1 
		634.2,479 	"/>
	<polygon class="st0" points="98.3,181.4 138.4,160.5 178.6,181.4 170.9,137.1 203.4,105.8 158.5,99.3 138.5,59 118.4,99.3 
		73.4,105.8 105.9,137.1 	"/>
	<polygon class="st0" points="212.1,330.2 252.3,309.3 292.5,330.2 284.8,285.9 317.3,254.6 272.4,248.1 252.3,207.8 232.3,248.1 
		187.3,254.5 219.8,285.9 	"/>
	<polygon class="st0" points="480.1,309.3 520.3,330.2 512.6,285.9 545.1,254.6 500.2,248.1 480.1,207.8 460,248.1 415.1,254.5 
		447.6,285.9 439.9,330.2 	"/>
</g>
</svg>
